<?xml version="1.0" encoding="UTF-8"?>
<svg version="1.1" xmlns="http://www.w3.org/2000/svg" width="1024" height="1024">
<path d="M0 0 C337.92 0 675.84 0 1024 0 C1024 337.92 1024 675.84 1024 1024 C686.08 1024 348.16 1024 0 1024 C0 686.08 0 348.16 0 0 Z " fill="#FDFDFD" transform="translate(0,0)"/>
<path d="M0 0 C2 1 4 2 6 3 C5.43611939 8.71569887 4.31005038 13.80950572 2.5 19.25 C-4.30315567 40.16484429 -1.39232585 61.12418114 7.92724609 80.89501953 C13.15993344 91.16270964 20.48328123 100.33195282 28 109 C28.7528125 109.87527344 29.505625 110.75054687 30.28125 111.65234375 C37.11470381 119.43358825 44.72578871 125.96631522 52.9375 132.25 C53.65607178 132.80067139 54.37464355 133.35134277 55.11499023 133.91870117 C62.7922968 139.72182948 70.841758 144.90492771 79 150 C78.21987389 146.62169141 76.99425072 143.85463107 75.4375 140.75 C73.12587084 135.80125366 72.49003126 132.40566869 73 127 C78.10326638 131.19494044 82.7167174 135.70095761 87.31958008 140.43676758 C105.25416486 158.84181055 126.94321993 176.8091206 154 178 C155.0621875 178.06316406 156.124375 178.12632812 157.21875 178.19140625 C184.10477289 179.06689649 209.03069806 165.8837237 228.3203125 147.828125 C229.61164131 146.52160409 230.89356431 145.20569234 232.1640625 143.87890625 C236.73964617 139.19623445 241.84578829 135.0267279 247 131 C246.70482853 136.214696 245.68139636 140.04736627 243.44921875 144.79296875 C242.76412231 146.26092896 242.76412231 146.26092896 242.06518555 147.75854492 C241.5379187 148.86806519 241.5379187 148.86806519 241 150 C253.86752094 142.16273242 265.89895885 134.20013134 277 124 C278.43431592 122.76711931 279.87132626 121.53735721 281.3125 120.3125 C301.31764773 102.60093608 319.15931483 78.4917531 321.14233398 51.02880859 C321.86745186 35.51903539 319.10135109 21.79187199 312.7578125 7.63671875 C312 5 312 5 312.8671875 2.64453125 C313.24101563 2.10183594 313.61484375 1.55914062 314 1 C314.99 1 315.98 1 317 1 C343.11113321 46.73536694 348.61869631 99.98060961 335.57421875 150.90625 C334.46219335 154.96098209 333.23523401 158.98137204 332 163 C333.25425781 163.03738281 334.50851562 163.07476563 335.80078125 163.11328125 C349.72838761 163.59476168 363.56159372 164.67304361 377.43701172 165.91333008 C384.76665122 166.56605567 392.08412011 167.18425458 399.4375 167.5 C407.31876572 167.88349754 415.15097122 168.63443969 423 169.4375 C424.24966553 169.55996094 425.49933105 169.68242188 426.78686523 169.80859375 C427.95032471 169.93234375 429.11378418 170.05609375 430.3125 170.18359375 C431.36050781 170.29243896 432.40851562 170.40128418 433.48828125 170.51342773 C436 171 436 171 438 173 C437.18362061 173.07072723 436.36724121 173.14145447 435.52612305 173.21432495 C427.76071582 173.88762811 419.9955731 174.56387817 412.23069763 175.24328423 C408.24052203 175.59231349 404.25026002 175.94027758 400.25976562 176.28564453 C396.39508007 176.62016529 392.53066734 176.95769644 388.66641235 177.29715347 C387.20603419 177.42493931 385.74556709 177.55171371 384.28500366 177.67736435 C375.3268313 178.44884624 366.41579041 179.410895 357.49804688 180.55862427 C353.59443583 181.05117318 349.70117004 181.44561872 345.78125 181.78125 C345.10936646 181.84026489 344.43748291 181.89927979 343.74523926 181.96008301 C340.97294512 182.20349846 338.20008526 182.44013405 335.42724609 182.67724609 C325.96993136 183.49080251 316.56137771 184.50942802 307.14648438 185.72692871 C303.25132726 186.22246252 299.35201428 186.68335995 295.453125 187.1484375 C275.59619732 189.52954798 255.78402214 192.07055132 236 195 C278.25593042 195.33140433 320.14306045 194.35931266 362.23478699 190.58358765 C370.22588259 189.87565549 378.22690915 189.31597525 386.2286377 188.74389648 C414.08366541 186.73989885 441.85401368 184.02571674 469.54882812 180.42773438 C478.35349099 179.29322754 487.16092062 178.38126569 496 177.5625 C508.32807817 176.41237299 520.50084807 174.65501265 532.70898438 172.62524414 C534.6184082 172.30994751 534.6184082 172.30994751 536.56640625 171.98828125 C537.68990479 171.79790283 538.81340332 171.60752441 539.97094727 171.41137695 C542.70381457 171.04022507 545.24954924 170.96939564 548 171 C548.02279921 199.99478511 548.04050276 228.98956936 548.05106533 257.98436164 C548.05231608 261.40534592 548.0536104 264.82633019 548.05493164 268.24731445 C548.05519395 268.92838769 548.05545626 269.60946093 548.05572652 270.31117275 C548.06008106 281.34750947 548.06796743 292.383841 548.0771528 303.42017464 C548.08649533 314.73952326 548.09198201 326.05886802 548.09408849 337.37822074 C548.09539497 343.73819882 548.0984769 350.09816511 548.10573006 356.45813942 C548.11249603 362.43914664 548.11461577 368.42013716 548.11310768 374.40114784 C548.11338375 376.60102936 548.11538545 378.80091142 548.11920547 381.00078964 C548.12415169 383.99503881 548.1229948 386.98922421 548.12025452 389.98347473 C548.12316736 390.86187242 548.1260802 391.74027011 548.12908131 392.6452859 C548.12069745 396.01469536 548.073017 398.780949 547 402 C544.4921875 402.95703125 544.4921875 402.95703125 540.875 403.8125 C540.18035645 403.97717773 539.48571289 404.14185547 538.77001953 404.31152344 C530.17760806 406.286501 521.49964502 407.87004707 512.84008789 409.51806641 C498.53837377 412.24567113 484.30132949 415.25993196 470.06169128 418.29258728 C464.40007402 419.49640444 458.73468003 420.68086903 453.06681824 421.85491943 C428.67809832 426.90766165 404.36439563 432.20761685 380.125 437.9375 C378.95800568 438.21258392 377.79101135 438.48766785 376.58865356 438.77108765 C365.62226163 441.36193892 354.69951663 443.98368728 343.890625 447.17504883 C339.44836003 448.44282022 334.95329516 449.40998779 330.4375 450.375 C321.20793918 452.40948598 312.16155994 454.87312199 303.09375 457.52734375 C298.1884574 458.95992064 293.25843573 460.27828322 288.3125 461.5625 C275.11068894 465.00212026 261.99470347 468.67037425 248.94018555 472.63305664 C242.27774191 474.64430047 235.58284418 476.5215717 228.875 478.375 C220.18489717 480.78163408 211.54898559 483.32578165 202.9375 486 C194.24414806 488.69784629 185.5431676 491.36258133 176.8125 493.9375 C175.82693115 494.23205078 174.8413623 494.52660156 173.82592773 494.83007812 C165.16328124 497.36820717 159.22742215 498.59300992 150.6875 495.375 C149.08340186 494.80472365 147.47788802 494.23841623 145.87109375 493.67578125 C145.05882324 493.39041504 144.24655273 493.10504883 143.40966797 492.81103516 C139.73031571 491.5726554 136.00004964 490.56184141 132.25 489.5625 C125.56276127 487.76087835 118.96507407 485.75422684 112.375 483.625 C98.32801534 479.09735803 84.15299708 475.03764203 69.9609375 470.9921875 C68.77419434 470.65388916 67.58745117 470.31559082 66.36474609 469.96704102 C63.94872168 469.27891627 61.5323784 468.5919101 59.11572266 467.90600586 C54.12525141 466.4853983 49.1390329 465.06332668 44.1875 463.51171875 C30.86328811 459.33822137 17.34502929 456.01138268 3.78808594 452.68994141 C-4.29503827 450.70503323 -12.34564465 448.65899949 -20.35546875 446.39453125 C-27.9159644 444.26059668 -35.51142198 442.42712187 -43.1875 440.75 C-45.87552143 440.15468298 -48.56274654 439.55580406 -51.25 438.95703125 C-51.9481633 438.80190567 -52.6463266 438.64678009 -53.36564636 438.48695374 C-61.31456619 436.71648618 -69.24456891 434.86519781 -77.17657471 433.02075195 C-102.35681248 427.17174366 -127.59430336 421.78579617 -153 417 C-177.10957826 412.45836003 -201.04885774 407.32247606 -225 402 C-225 325.77 -225 249.54 -225 171 C-215.64717221 172.10033268 -206.32813913 173.20762304 -197.00146484 174.46875 C-189.82517308 175.43037897 -182.63686107 176.29928268 -175.44995117 177.17724609 C-172.83289863 177.49750375 -170.21625639 177.82097925 -167.59960938 178.14453125 C-156.57811196 179.49811878 -145.54866658 180.68143304 -134.49661255 181.75482178 C-131.13815853 182.08463659 -127.78128263 182.42906983 -124.42442322 182.77468872 C-121.06163499 183.12090791 -117.69842184 183.46290407 -114.33520508 183.80493164 C-112.64790465 183.97720513 -110.96073011 184.15071581 -109.27368164 184.32543945 C-97.52761871 185.54772891 -97.52761871 185.54772891 -85.74862671 186.37008667 C-84.96919708 186.41166901 -84.18976746 186.45325134 -83.38671875 186.49609375 C-82.0875502 186.56418243 -80.78838165 186.63227112 -79.44984436 186.7024231 C-75.16763374 186.96143282 -70.92993996 187.43910542 -66.67211914 187.953125 C-57.08393679 189.05994446 -47.49274226 189.6959693 -37.859375 190.25390625 C-36.07690333 190.36039725 -34.29445341 190.46725283 -32.51202393 190.57444763 C-28.80456224 190.79648729 -25.09694318 191.01557136 -21.38916016 191.23217773 C-16.70500566 191.5058605 -12.02119086 191.78490411 -7.33746529 192.06582165 C30.99088829 194.39403283 30.99088829 194.39403283 69.375 195.0625 C71.20182165 195.05746072 73.02864469 195.05290222 74.85546875 195.04882812 C79.23701498 195.03804739 83.61849097 195.02092565 88 195 C86.55608887 194.81207886 86.55608887 194.81207886 85.08300781 194.62036133 C81.33183573 194.13171981 77.5809257 193.64108907 73.83007812 193.14996338 C72.09641662 192.92320774 70.36269156 192.6969375 68.62890625 192.47113037 C59.71686371 191.30989025 50.8088642 190.14189649 41.921875 188.80078125 C-11.6784774 180.77479145 -65.97357745 176.9365944 -120 173 C-116.32504968 170.55003312 -114.26377598 170.67450401 -109.875 170.5 C-104.47891691 170.27930131 -99.19646981 169.79984401 -93.8359375 169.1328125 C-81.85535717 167.66115985 -69.82420633 166.71243048 -57.796875 165.71289062 C-54.41607728 165.43168523 -51.0359773 165.14285897 -47.65598679 164.8521328 C-44.37002614 164.57096816 -41.0834187 164.29770179 -37.796875 164.0234375 C-36.60487488 163.92034271 -35.41287476 163.81724792 -34.18475342 163.71102905 C-26.43900992 163.0777297 -18.77039227 162.88146859 -11 163 C-11.41236908 162.04761444 -11.41236908 162.04761444 -11.83306885 161.07598877 C-25.77237761 128.49080773 -27.12041171 86.18578959 -19 52 C-18.74798828 50.9284668 -18.49597656 49.85693359 -18.23632812 48.75292969 C-14.98993222 35.25742059 -11.17805399 22.44415625 -5 10 C-4.48824219 8.948125 -3.97648438 7.89625 -3.44921875 6.8125 C-2.32296264 4.52826226 -1.17782053 2.25794166 0 0 Z " fill="#05223A" transform="translate(352,381)"/>
<path d="M0 0 C4.46114887 0.42999025 7.01430247 3.53572265 10.0625 6.5 C14.87547466 11.05873983 19.77761291 15.38921876 24.94921875 19.54296875 C27.2595154 21.4036302 29.55097554 23.27984611 31.83203125 25.17578125 C50.67091646 40.82729607 70.12802597 55.68544244 90 70 C94.09190328 68.34940134 96.9786134 65.42818912 100.125 62.4375 C101.28081681 61.35500603 102.43707177 60.27297971 103.59375 59.19140625 C104.16609375 58.65402832 104.7384375 58.11665039 105.328125 57.56298828 C107.73891354 55.30921079 110.17732002 53.08871057 112.625 50.875 C113.78902344 49.81925781 113.78902344 49.81925781 114.9765625 48.7421875 C117 47 117 47 120 45 C123.54361144 45.29996578 125.26162295 46.88999911 127.71226501 49.35150146 C128.79510017 50.42815063 128.79510017 50.42815063 129.89981079 51.52655029 C130.68173798 52.31926331 131.46366516 53.11197632 132.26928711 53.92871094 C133.10064682 54.75963257 133.93200653 55.5905542 134.78855896 56.44665527 C137.06678842 58.72661735 139.33821734 61.01310406 141.60681987 63.30263805 C143.98539279 65.69998651 146.37248459 68.08882173 148.75868225 70.47857666 C153.2812478 75.01047124 157.79611594 79.54995472 162.30827004 84.09221292 C167.42508853 89.24244065 172.5503117 94.38426849 177.676319 99.52534819 C186.44569491 108.32079258 195.20873637 117.12249709 203.96466064 125.93133545 C205.37591954 127.35103701 206.78756363 128.77035583 208.19968987 130.18919468 C209.68633045 131.68450187 211.16891455 133.18384085 212.65040588 134.68424988 C215.36666572 137.3613842 218.17275148 139.93129895 220.9921875 142.49829102 C227.88971753 148.8257948 234.52290457 155.39421356 241.125 162.02734375 C242.3273332 163.23155016 243.5298934 164.43552997 244.73266602 165.63929749 C247.8563867 168.76678333 250.97709296 171.89725927 254.09710693 175.02844238 C257.2777342 178.2193735 260.46125547 181.40741455 263.64453125 184.59570312 C269.23135897 190.19202548 274.81570808 195.79081028 280.39819336 201.39146423 C282.92998026 203.92979917 285.46438775 206.46548686 288 209 C290.33333333 211.33333333 292.66666667 213.66666667 295 216 C294.67 216.66 294.34 217.32 294 218 C293.27804443 217.46596558 293.27804443 217.46596558 292.54150391 216.92114258 C283.77208023 210.43790703 274.98936892 203.97794751 266.125 197.625 C259.46827493 192.84864337 252.936124 187.9264618 246.4375 182.9375 C240.16582594 178.12488497 233.85452202 173.40433015 227.375 168.875 C226.35394165 168.15787842 226.35394165 168.15787842 225.31225586 167.42626953 C222.44424437 165.41233624 219.57574373 163.39940849 216.69628906 161.40185547 C201.95010179 151.12558727 189.43196453 139.45997728 177.66992188 125.88378906 C175.18292625 123.07828347 172.54782708 120.43972766 169.875 117.8125 C169.37613281 117.31814453 168.87726563 116.82378906 168.36328125 116.31445312 C167.38476551 115.34487944 166.40531069 114.37625234 165.42480469 113.40869141 C163.27370279 111.28191657 161.13701095 109.14092489 159 107 C158.34 108.65 157.68 110.3 157 112 C156.01 112 155.02 112 154 112 C152.36523438 110.03491211 152.36523438 110.03491211 150.59375 107.27734375 C149.93713379 106.27034424 149.28051758 105.26334473 148.60400391 104.22583008 C147.90968262 103.14068115 147.21536133 102.05553223 146.5 100.9375 C141.30925821 92.96436535 136.07425662 85.10184567 130.27539062 77.55639648 C127.95101768 74.49073952 126.23343442 71.65286348 125 68 C123.87078125 68.87398437 123.87078125 68.87398437 122.71875 69.765625 C115.71348393 75.17588718 108.66622384 80.52450224 101.55859375 85.79980469 C94.36304806 90.60059217 94.36304806 90.60059217 89 97 C89.86512207 97.26731934 90.73024414 97.53463867 91.62158203 97.81005859 C94.95634389 98.98462351 97.92768359 100.39496766 101.0546875 102.0390625 C102.16328125 102.61914062 103.271875 103.19921875 104.4140625 103.796875 C105.55617188 104.40015625 106.69828125 105.0034375 107.875 105.625 C109.0403125 106.23601562 110.205625 106.84703125 111.40625 107.4765625 C114.27294981 108.98040502 117.13742221 110.48833018 120 112 C117.92446352 112.5534764 116.15634036 113 114 113 C114.6496875 113.56589844 115.299375 114.13179688 115.96875 114.71484375 C117.22171875 115.81505859 117.22171875 115.81505859 118.5 116.9375 C119.75296875 118.03384766 119.75296875 118.03384766 121.03125 119.15234375 C121.6809375 119.76207031 122.330625 120.37179688 123 121 C123 121.33 123 121.66 123 122 C122.43192627 122.03440186 121.86385254 122.06880371 121.27856445 122.10424805 C109.74391165 122.85627989 99.45083867 123.72327921 89 129 C87.66775391 129.66515625 87.66775391 129.66515625 86.30859375 130.34375 C77.18658438 135.35737347 70.59844637 142.76217508 64.60546875 151.15234375 C62.83400759 153.19103263 61.5265508 154.07553409 59 155 C53.01754326 155 48.67056827 153.54164344 43.1875 151.1875 C25.46930145 143.73935657 6.99363793 143.24889991 -12 143 C-12 142.67 -12 142.34 -12 142 C8.93089566 137.52649324 26.98224914 137.04593265 48 141 C15.36839627 131.88502689 -15.48071739 135.13795298 -46.12890625 148.8203125 C-46.76530029 149.10342285 -47.40169434 149.3865332 -48.05737305 149.67822266 C-49.75225875 150.44450678 -51.43527285 151.23689995 -53.1171875 152.03125 C-56.41711832 153.14016984 -57.77624599 153.2853553 -61 152 C-63.36328125 149.91015625 -63.36328125 149.91015625 -66 147 C-67.15815526 145.78844861 -68.31845632 144.57894617 -69.48046875 143.37109375 C-70.71713666 142.0608303 -71.95279632 140.74961457 -73.1875 139.4375 C-73.81591797 138.77814453 -74.44433594 138.11878906 -75.09179688 137.43945312 C-75.69443359 136.79814453 -76.29707031 136.15683594 -76.91796875 135.49609375 C-77.46219482 134.92044678 -78.0064209 134.3447998 -78.56713867 133.75170898 C-80 132 -80 132 -82 128 C-71.11 129.98 -71.11 129.98 -60 132 C-61.82402344 131.34773437 -63.64804687 130.69546875 -65.52734375 130.0234375 C-66.70466064 129.60231689 -67.88197754 129.18119629 -69.0949707 128.74731445 C-71.66413621 127.82899882 -74.23435399 126.91371325 -76.80541992 126.00073242 C-82.35213631 124.02947453 -87.89556153 122.05644911 -93.3984375 119.96484375 C-94.160354 119.68012207 -94.92227051 119.39540039 -95.70727539 119.10205078 C-97.06287461 118.59364212 -98.4141114 118.07336418 -99.75952148 117.53857422 C-104.20351835 115.8919439 -107.41493281 115.86571509 -112 117 C-113.68667236 117.9658748 -115.35725207 118.96117518 -117 120 C-117.7206665 119.53625977 -118.44133301 119.07251953 -119.18383789 118.59472656 C-121.88720023 116.85633883 -124.59157899 115.11954639 -127.29663086 113.38378906 C-128.461747 112.63571781 -129.62646936 111.88703286 -130.79077148 111.13769531 C-134.51599623 108.74051079 -138.2524435 106.36211147 -142 104 C-142.74749512 103.52369141 -143.49499023 103.04738281 -144.26513672 102.55664062 C-146.25258781 101.30327294 -146.25258781 101.30327294 -149 100 C-152.48378825 101.16126275 -152.87011727 101.88692674 -154.8203125 104.8671875 C-155.35172852 105.66600342 -155.88314453 106.46481934 -156.43066406 107.2878418 C-156.98979492 108.141604 -157.54892578 108.99536621 -158.125 109.875 C-163.04096999 117.22896576 -167.97345821 124.49074977 -174 131 C-174.33 131 -174.66 131 -175 131 C-175.495 126.545 -175.495 126.545 -176 122 C-177.65053973 123.91277501 -179.29584822 125.8296128 -180.9375 127.75 C-181.4418457 128.33692627 -181.94619141 128.92385254 -182.46582031 129.52856445 C-185.6488462 133.27409918 -188.48285717 137.11879476 -191.25 141.1875 C-196.13829522 147.79189886 -202.08762131 151.57999842 -209.00830078 155.78320312 C-212.19302245 157.72885804 -215.31014085 159.7764446 -218.4375 161.8125 C-219.85934889 162.72920717 -221.28122606 163.64587047 -222.703125 164.5625 C-226.95558568 167.31389288 -231.19050479 170.09134522 -235.421875 172.875 C-236.0877211 173.31302948 -236.7535672 173.75105896 -237.43959045 174.20236206 C-238.82041478 175.11079831 -240.20123854 176.01923541 -241.58206177 176.92767334 C-254.19049544 185.22071886 -266.83550487 193.4462681 -279.60742188 201.48632812 C-282.02282881 203.01444272 -284.42636557 204.55991613 -286.828125 206.109375 C-288.30199219 207.05222582 -289.77594522 207.99494247 -291.25 208.9375 C-291.91257812 209.36957764 -292.57515625 209.80165527 -293.2578125 210.24682617 C-294.8009716 211.22640933 -296.39626775 212.12309293 -298 213 C-298.66 212.67 -299.32 212.34 -300 212 C-299.23816406 211.31035156 -298.47632813 210.62070312 -297.69140625 209.91015625 C-292.78115932 205.44716668 -287.91077046 200.97607022 -283.25 196.25 C-280.00686866 192.96618422 -276.66476219 189.88448706 -273.1640625 186.87890625 C-270.57061106 184.62719119 -268.03613024 182.31605282 -265.5 180 C-262.38092989 177.15475772 -259.25244609 174.3280042 -256.0625 171.5625 C-252.6531142 168.6011649 -249.3220569 165.55847514 -246 162.5 C-242.04408354 158.85834719 -238.05438449 155.26500564 -233.9921875 151.7421875 C-231.63979365 149.68499601 -229.31965034 147.59403085 -227 145.5 C-224.04130249 142.82951656 -221.07073528 140.17701942 -218.0625 137.5625 C-214.83440488 134.75177475 -211.66261557 131.884201 -208.5 129 C-204.71337002 125.54671847 -200.8952368 122.13900949 -197.02734375 118.77734375 C-193.79598522 115.94445718 -190.61531919 113.05556133 -187.42578125 110.17578125 C-185.36297212 108.32556437 -183.2828763 106.50055191 -181.1875 104.6875 C-178.18839729 102.08142486 -175.27026347 99.40027115 -172.3659668 96.68994141 C-155.28065561 80.76021854 -155.28065561 80.76021854 -150 79 C-147.85864258 79.90869141 -147.85864258 79.90869141 -145.39453125 81.3515625 C-144.49283203 81.87363281 -143.59113281 82.39570313 -142.66210938 82.93359375 C-141.72173828 83.49175781 -140.78136719 84.04992187 -139.8125 84.625 C-138.89146484 85.15996094 -137.97042969 85.69492188 -137.02148438 86.24609375 C-129.77936401 90.47109229 -129.77936401 90.47109229 -126.71630859 92.54980469 C-122.91915252 95.20241532 -122.91915252 95.20241532 -118.5 96.15234375 C-114.67721058 94.39027675 -111.39078149 92.04138839 -108 89.5625 C-106.87549438 88.75377441 -106.87549438 88.75377441 -105.72827148 87.92871094 C-92.82323289 78.59764994 -80.41179519 68.64101171 -68.10546875 58.5390625 C-65.82440046 56.66967735 -63.53343254 54.8130027 -61.23828125 52.9609375 C-52.94750236 46.26562801 -44.77705257 39.45587577 -36.71777344 32.48388672 C-33.81954881 29.98027539 -30.90898023 27.49109551 -28 25 C-27.42886475 24.50999512 -26.85772949 24.01999023 -26.26928711 23.51513672 C-23.24623614 20.92151816 -20.21843929 18.33371777 -17.18359375 15.75390625 C-16.24290039 14.95243164 -16.24290039 14.95243164 -15.28320312 14.13476562 C-14.0919695 13.12001106 -12.89935883 12.10686977 -11.70507812 11.09570312 C-9.085208 8.86119942 -6.6324558 6.62315088 -4.22265625 4.15234375 C-2 2 -2 2 0 2 C0 1.34 0 0.68 0 0 Z " fill="#C8961C" transform="translate(510,134)"/>
<path d="M0 0 C3.57383811 1.19846441 6.82865252 2.48549952 10.23828125 4.0859375 C7.41086912 5.97087892 4.58950412 7.28611313 1.48803711 8.64819336 C-18.06636203 17.34210256 -31.87841218 32.12447586 -39.69921875 52.1484375 C-45.93721667 69.25535384 -44.34579599 88.66603042 -36.85253906 105.07714844 C-33.4638988 112.26548726 -29.8602653 118.85159634 -23.9140625 124.27734375 C-22.76171875 126.0859375 -22.76171875 126.0859375 -22.7265625 128.640625 C-24.24613088 133.69820731 -26.82935531 138.04664334 -29.38671875 142.6484375 C-35.21506682 153.47732177 -39.40952042 164.27505795 -42.76171875 176.0859375 C-42.96732422 176.79266602 -43.17292969 177.49939453 -43.38476562 178.22753906 C-48.57007928 196.30630098 -50.31852596 214.5277123 -50.19921875 233.2734375 C-50.19817139 234.20129059 -50.19712402 235.12914368 -50.19604492 236.08511353 C-50.16130211 251.05331258 -49.0960302 265.44290087 -45.76171875 280.0859375 C-50.09396364 278.56026934 -53.78103146 276.31705723 -57.57421875 273.7734375 C-58.22366455 273.33829834 -58.87311035 272.90315918 -59.54223633 272.45483398 C-71.80143829 264.0868832 -83.03052958 254.31508273 -93.76171875 244.0859375 C-94.5609375 243.32796875 -95.36015625 242.57 -96.18359375 241.7890625 C-101.86706812 236.26237363 -106.85595098 230.30545325 -111.76171875 224.0859375 C-112.54289062 223.12171875 -113.3240625 222.1575 -114.12890625 221.1640625 C-138.48252193 190.50807344 -153.46243813 155.08861156 -162.13671875 117.1484375 C-162.30461914 116.42116455 -162.47251953 115.6938916 -162.64550781 114.94458008 C-163.0690636 113.00221542 -163.41819182 111.04404098 -163.76171875 109.0859375 C-163.98085937 108.05339844 -164.2 107.02085937 -164.42578125 105.95703125 C-163.61286622 102.44236923 -162.79872979 102.06073203 -159.88671875 100.0703125 C-158.19215144 99.05224823 -156.48306561 98.0580374 -154.76171875 97.0859375 C-153.95734375 96.61220703 -153.15296875 96.13847656 -152.32421875 95.65039062 C-149.81743247 94.18608999 -147.29272358 92.75792486 -144.76171875 91.3359375 C-142.89274717 90.27689182 -141.02426321 89.21698519 -139.15625 88.15625 C-137.78073975 87.37556152 -137.78073975 87.37556152 -136.37744141 86.57910156 C-132.71543581 84.48867537 -129.07917187 82.35641426 -125.44921875 80.2109375 C-116.72530897 75.05964668 -107.98197707 69.94243202 -99.22265625 64.8515625 C-95.26399436 62.54998645 -91.3147789 60.23361262 -87.37519836 57.89961243 C-84.98421127 56.48513754 -82.58845465 55.07887473 -80.19186401 53.67391968 C-78.47410396 52.66308152 -76.76250824 51.64179161 -75.05102539 50.62036133 C-74.01067139 50.01216553 -72.97031738 49.40396973 -71.8984375 48.77734375 C-70.51724731 47.96052124 -70.51724731 47.96052124 -69.1081543 47.12719727 C-66.76171875 46.0859375 -66.76171875 46.0859375 -63.76171875 47.0859375 C-62.59375 49.15234375 -62.59375 49.15234375 -61.57421875 51.6484375 C-61.05794922 52.88787109 -61.05794922 52.88787109 -60.53125 54.15234375 C-60.27730469 54.79042969 -60.02335937 55.42851562 -59.76171875 56.0859375 C-49.32101952 45.91526629 -49.32101952 45.91526629 -40.015625 34.72265625 C-35.93988328 29.2742115 -31.72473738 25.31159893 -26.18652344 21.3527832 C-20.01149352 16.80614853 -14.87696577 11.22471366 -9.76196289 5.53491211 C-4.64327738 0.10607695 -4.64327738 0.10607695 0 0 Z " fill="#05213A" transform="translate(372.76171875,250.9140625)"/>
<path d="M0 0 C3.37070688 1.26009458 6.30455617 2.69567086 9.31640625 4.66015625 C10.14817383 5.19753418 10.97994141 5.73491211 11.83691406 6.28857422 C12.73635742 6.87396973 13.63580078 7.45936523 14.5625 8.0625 C23.21376912 13.6315179 31.94424168 19.05462589 40.75 24.375 C43.12901493 25.8136224 45.50787849 27.25249503 47.88671875 28.69140625 C48.47677704 29.04822479 49.06683533 29.40504333 49.67477417 29.77267456 C64.15756563 38.53658586 78.57317857 47.41357214 92.86572266 56.48461914 C98.31280547 59.94130908 103.78195217 63.36116422 109.25878906 66.77050781 C134.47104031 82.47104031 134.47104031 82.47104031 138 86 C138.53258934 92.86801782 137.19703038 99.29090032 135.8125 106 C135.58473877 107.11141357 135.35697754 108.22282715 135.12231445 109.36791992 C133.27884871 118.12009288 131.09004363 126.59451433 128 135 C127.72317383 135.75522949 127.44634766 136.51045898 127.16113281 137.28857422 C120.386488 155.48490399 112.16262703 173.06641727 101 189 C100.5054834 189.71478516 100.0109668 190.42957031 99.50146484 191.16601562 C91.48058253 202.68193616 82.73760099 213.09128808 72.88574219 223.07910156 C71.13356176 224.86394822 69.41092782 226.67227946 67.6953125 228.4921875 C60.1196892 236.43151581 51.81509114 243.07594433 42.97119141 249.5546875 C41.15200967 250.88854381 39.34560705 252.23766594 37.54296875 253.59375 C30.28069982 259 30.28069982 259 28 259 C28.11593506 258.28569824 28.23187012 257.57139648 28.35131836 256.83544922 C31.52412085 238.00802505 31.52412085 238.00802505 33 219 C33.02578125 218.19626953 33.0515625 217.39253906 33.078125 216.56445312 C34.15508273 179.27479156 26.49656561 137.54996064 5.08203125 106.19140625 C4 104 4 104 4.578125 102.05078125 C5.04734375 101.37402344 5.5165625 100.69726562 6 100 C6.57234375 99.10667969 7.1446875 98.21335937 7.734375 97.29296875 C8.39953125 96.26816406 9.0646875 95.24335938 9.75 94.1875 C18.37772081 80.41893984 24.04249389 64.40556172 23 48 C22.99226562 47.24976563 22.98453125 46.49953125 22.9765625 45.7265625 C22.26475697 29.24552674 12.68218313 14.4983374 1.72265625 2.8984375 C0 1 0 1 0 0 Z " fill="#05213A" transform="translate(669,272)"/>
<path d="M0 0 C0.99 0.495 0.99 0.495 2 1 C0.02 11.56 -1.96 22.12 -4 33 C0.72176244 28.86845787 5.39684605 24.75291398 10 20.5 C14.60324127 16.25890184 19.25846288 12.08608934 24 8 C28.15495722 11.71443163 30.99127638 16.21272852 34.0625 20.8125 C39.83761799 29.36673374 45.82967135 37.72755538 52 46 C51.3548302 42.3529756 50.377887 39.01274282 49.109375 35.53515625 C48.73167969 34.49367432 48.35398437 33.45219238 47.96484375 32.37915039 C47.56394531 31.28465576 47.16304687 30.19016113 46.75 29.0625 C45.93213406 26.81255729 45.11442478 24.56255762 44.296875 22.3125 C43.90177734 21.22839844 43.50667969 20.14429688 43.09960938 19.02734375 C41.32968329 14.15454548 39.6023114 9.26695762 37.875 4.37890625 C37.06027663 2.02808575 37.06027663 2.02808575 36 0 C39.94947263 1.46874432 43.5009062 3.32236895 47.15625 5.4140625 C47.73983276 5.74739594 48.32341553 6.08072937 48.92468262 6.42416382 C50.1593355 7.1303463 51.39308414 7.83811178 52.62597656 8.54736328 C54.46452968 9.60460318 56.30619757 10.65623185 58.1484375 11.70703125 C67.71698194 17.18106038 77.14651771 22.86147994 86.41796875 28.828125 C87.05283203 29.23546875 87.68769531 29.6428125 88.34179688 30.0625 C89.58767655 30.86408184 90.82979897 31.67152954 92.06835938 32.484375 C96.32090835 35.1948863 100.58184878 37.08416931 105.28540039 38.88378906 C110.40364142 40.98834864 115.24307519 43.65376009 120.125 46.25 C121.7028125 47.08144531 121.7028125 47.08144531 123.3125 47.9296875 C125.87736184 49.2820692 128.43976116 50.63889278 131 52 C128.92446352 52.5534764 127.15634036 53 125 53 C125.6496875 53.56589844 126.299375 54.13179687 126.96875 54.71484375 C127.8040625 55.44832031 128.639375 56.18179688 129.5 56.9375 C130.3353125 57.66839844 131.170625 58.39929688 132.03125 59.15234375 C133.00578125 60.06693359 133.00578125 60.06693359 134 61 C134 61.33 134 61.66 134 62 C133.43192627 62.03440186 132.86385254 62.06880371 132.27856445 62.10424805 C120.74391165 62.85627989 110.45083867 63.72327921 100 69 C99.11183594 69.4434375 98.22367188 69.886875 97.30859375 70.34375 C88.18658438 75.35737347 81.59844637 82.76217508 75.60546875 91.15234375 C73.83400759 93.19103263 72.5265508 94.07553409 70 95 C64.01754326 95 59.67056827 93.54164344 54.1875 91.1875 C36.46930145 83.73935657 17.99363793 83.24889991 -1 83 C-1 82.67 -1 82.34 -1 82 C19.93089566 77.52649324 37.98224914 77.04593265 59 81 C26.36839627 71.88502689 -4.48071739 75.13795298 -35.12890625 88.8203125 C-35.76530029 89.10342285 -36.40169434 89.3865332 -37.05737305 89.67822266 C-38.75225875 90.44450678 -40.43527285 91.23689995 -42.1171875 92.03125 C-45.41711832 93.14016984 -46.77624599 93.2853553 -50 92 C-52.36328125 89.91015625 -52.36328125 89.91015625 -55 87 C-56.15815526 85.78844861 -57.31845632 84.57894617 -58.48046875 83.37109375 C-59.71713666 82.0608303 -60.95279632 80.74961457 -62.1875 79.4375 C-62.81591797 78.77814453 -63.44433594 78.11878906 -64.09179688 77.43945312 C-64.99575195 76.47749023 -64.99575195 76.47749023 -65.91796875 75.49609375 C-66.46219482 74.92044678 -67.0064209 74.3447998 -67.56713867 73.75170898 C-69 72 -69 72 -71 68 C-63.74 69.32 -56.48 70.64 -49 72 C-64.98080697 66.27776581 -80.96809419 60.57792115 -97 55 C-88.52435964 46.3738154 -79.37401948 39.79903515 -69.11328125 33.53515625 C-65.15700732 31.11634751 -61.28710492 28.58447417 -57.4375 26 C-56.83309082 25.59483154 -56.22868164 25.18966309 -55.60595703 24.7722168 C-53.73608998 23.51660679 -51.86788583 22.25855516 -50 21 C-47.21032207 19.12201975 -44.41825796 17.2476499 -41.625 15.375 C-40.6513147 14.71757812 -40.6513147 14.71757812 -39.65795898 14.046875 C-35.11283235 11 -35.11283235 11 -34 11 C-34.0721875 11.83144531 -34.144375 12.66289062 -34.21875 13.51953125 C-34.35796875 15.14955078 -34.35796875 15.14955078 -34.5 16.8125 C-34.63921875 18.43091797 -34.63921875 18.43091797 -34.78125 20.08203125 C-35.03737838 23.01090811 -35.03737838 23.01090811 -35 26 C-34.19820313 25.35675781 -33.39640625 24.71351563 -32.5703125 24.05078125 C-22.01933682 15.64496588 -11.22822176 7.48548118 0 0 Z " fill="#05223B" transform="translate(499,194)"/>
<path d="M0 0 C14.57392049 11.20384087 14.57392049 11.20384087 16.30078125 19.1484375 C15.3420813 19.63086914 15.3420813 19.63086914 14.36401367 20.12304688 C-2.45929953 28.37932166 -2.45929953 28.37932166 -17.69921875 39.1484375 C-19.18228516 40.40914063 -19.18228516 40.40914063 -20.6953125 41.6953125 C-36.51737387 55.51026344 -46.17159632 72.73277841 -55.69921875 91.1484375 C-63.47785829 90.48593957 -67.56583766 85.6330106 -72.69921875 80.1484375 C-82.90284422 67.37006542 -87.12163972 51.30190778 -85.69921875 35.1484375 C-82.27229595 19.9654791 -74.44037513 6.73092306 -61.3984375 -2.08203125 C-41.14473797 -14.57708776 -19.61328878 -13.45397812 0 0 Z " fill="#06223B" transform="translate(426.69921875,278.8515625)"/>
<path d="M0 0 C4.45105769 2.54506321 8.33901793 5.2944248 12.1015625 8.7734375 C12.72417969 9.31742187 13.34679687 9.86140625 13.98828125 10.421875 C18.82268776 14.88924414 21.95746217 20.03162013 25.1015625 25.7734375 C25.6790625 26.7634375 26.2565625 27.7534375 26.8515625 28.7734375 C32.40399684 42.09927991 30.9136301 56.930223 26.22265625 70.2734375 C21.63944087 81.31917833 13.8288908 92.09741354 3.1015625 97.7734375 C2.4415625 97.7734375 1.7815625 97.7734375 1.1015625 97.7734375 C0.59367188 96.73445313 0.08578125 95.69546875 -0.4375 94.625 C-16.97371192 61.01146446 -38.04443382 42.14487583 -70.8984375 24.7734375 C-66.29243342 12.59491477 -54.37691525 4.13602617 -42.8984375 -1.1640625 C-29.53756627 -6.89292444 -13.10706141 -6.19025295 0 0 Z " fill="#06223A" transform="translate(649.8984375,273.2265625)"/>
<path d="M0 0 C15.85790486 7.90898026 27.78885346 20.11420084 33.6015625 37.046875 C37.36635369 49.45674225 37.99400846 62.64687798 32.71484375 74.6328125 C28.15627018 82.86694296 22.23390989 88.45586552 13.15625 91.1171875 C5.88100641 92.63862627 -0.12130426 91.79824239 -6.58984375 88.125 C-13.87146716 83.14737587 -16.96076896 76.56547686 -20.41748047 68.67626953 C-23.78031762 61.26465921 -28.24922271 54.72519507 -32.97485352 48.1184082 C-39.87820539 38.26128765 -43.42066 28.67852701 -41.8984375 16.546875 C-39.79649792 9.02710184 -35.49003126 3.00042234 -28.9609375 -1.328125 C-19.5785278 -6.12046694 -9.26175411 -4.01117331 0 0 Z " fill="#06223A" transform="translate(581.8984375,368.453125)"/>
<path d="M0 0 C4.94056884 3.77808205 8.24598738 8.71711347 10.125 14.625 C11.76264324 32.18205893 5.78924794 43.9614791 -4.8125 57.75 C-8.26916785 62.38113414 -10.60717968 67.12684574 -12.9375 72.375 C-16.77274998 80.94340954 -20.77523967 87.06422422 -29.875 90.625 C-37.95177927 92.90306595 -44.58208421 91.38908557 -51.875 87.625 C-60.10896536 82.43825017 -64.97972821 73.49389253 -67.40625 64.25 C-69.87411041 50.42998173 -65.98296595 37.46626156 -58.875 25.625 C-56.40563338 22.0973334 -53.73971886 18.83761641 -50.875 15.625 C-50.24722656 14.91472656 -49.61945313 14.20445312 -48.97265625 13.47265625 C-36.76931984 0.4707375 -17.15091528 -9.92947727 0 0 Z " fill="#06233B" transform="translate(471.875,367.375)"/>
<path d="M0 0 C43.09553283 -0.75827917 43.09553283 -0.75827917 57.03125 11.08203125 C64.13587113 18.00339826 68.66501003 26.30799098 69.16796875 36.35546875 C69.22974129 48.47524014 68.37851969 59.65892703 60.05859375 69.234375 C50.40560911 78.42111531 39.96180133 81.19308659 26.87890625 81.09765625 C26.13414536 81.0962413 25.38938446 81.09482635 24.62205505 81.09336853 C22.26882727 81.08781989 19.9156985 81.07527733 17.5625 81.0625 C15.95638159 81.05747835 14.35026168 81.05291661 12.74414062 81.04882812 C8.82938957 81.03786735 4.91471151 81.02063884 1 81 C0.28183252 53.99422888 -0.15888642 27.01558101 0 0 Z " fill="#F7F8F9" transform="translate(376,617)"/>
<path d="M0 0 C43.47115385 0 43.47115385 0 55.7109375 11.625 C62.72946044 19.02012661 64.33480942 29.07043412 64.21484375 38.9609375 C63.49611912 49.12762415 60.4361468 57.46068699 53.3125 64.75 C47.45784835 69.25123867 39.27792546 72.15362065 31.890625 72.09765625 C31.21032227 72.09515869 30.53001953 72.09266113 29.82910156 72.09008789 C28.97799805 72.08098389 28.12689453 72.07187988 27.25 72.0625 C24.5275 72.041875 21.805 72.02125 19 72 C19 81.24 19 90.48 19 100 C12.73 100 6.46 100 0 100 C0 67 0 34 0 0 Z " fill="#FAFAFB" transform="translate(165,601)"/>
<path d="M0 0 C0.66128906 0.26683594 1.32257812 0.53367187 2.00390625 0.80859375 C8.01496138 3.72973285 12.57931268 9.83724101 15 16 C15.89930798 25.37849756 15.40119718 33.95306224 10.0625 41.875 C8.13814059 43.85767334 6.33371536 45.52198027 4 47 C3.34 47 2.68 47 2 47 C2.32871094 47.59683594 2.65742187 48.19367187 2.99609375 48.80859375 C4.67324029 51.86745451 6.33978979 54.93192514 8 58 C8.57790283 59.06782715 8.57790283 59.06782715 9.16748047 60.15722656 C10.40829908 62.45634716 11.64239993 64.75896431 12.875 67.0625 C13.28032959 67.81265381 13.68565918 68.56280762 14.10327148 69.33569336 C17 74.77086264 17 74.77086264 17 77 C10.73 77 4.46 77 -2 77 C-4.17172156 73.04436429 -6.33756926 69.08570994 -8.5 65.125 C-9.43005859 63.43310547 -9.43005859 63.43310547 -10.37890625 61.70703125 C-10.96542969 60.63066406 -11.55195312 59.55429687 -12.15625 58.4453125 C-12.70087891 57.45031738 -13.24550781 56.45532227 -13.80664062 55.43017578 C-15 53 -15 53 -15 51 C-18.63 51 -22.26 51 -26 51 C-26 59.58 -26 68.16 -26 77 C-31.94 77 -37.88 77 -44 77 C-44 50.93 -44 24.86 -44 -2 C-10.77254799 -4.37338943 -10.77254799 -4.37338943 0 0 Z " fill="#F9F9FA" transform="translate(659,622)"/>
<path d="M0 0 C4.95 0 9.9 0 15 0 C18.27728305 3.54309632 19.87380898 5.86182636 22 10 C23.25526369 11.91440085 24.53335305 13.81399927 25.83203125 15.69921875 C27.16004965 17.69451733 28.48686156 19.69061942 29.8125 21.6875 C31.13149369 23.67058404 32.45050437 25.65365679 33.76953125 27.63671875 C35.16558594 29.73660156 36.56164062 31.83648438 38 34 C41.3 38.95 44.6 43.9 48 49 C48.33 33.49 48.66 17.98 49 2 C54.61 2 60.22 2 66 2 C66.14559911 9.49912884 66.28782669 16.99831231 66.42724609 24.49755859 C66.47487558 27.03598658 66.52334558 29.57439898 66.57275391 32.11279297 C66.90870252 49.41071852 67.07162579 66.69878972 67 84 C56.14224318 85.83233558 56.14224318 85.83233558 51 84 C46.29286037 80.1909882 43.65183682 74.22470331 40.75927734 69.0234375 C37.65107538 63.6817815 34.13135416 58.6116383 30.66375732 53.49893188 C28.69835532 50.59563272 26.75241674 47.67949146 24.80859375 44.76171875 C24.14657959 43.77131592 23.48456543 42.78091309 22.80249023 41.76049805 C21.13928852 39.21331915 19.56514651 36.60857752 18 34 C18 50.5 18 67 18 84 C12.06 84 6.12 84 0 84 C0 56.28 0 28.56 0 0 Z " fill="#F7F8F9" transform="translate(299,614)"/>
<path d="M0 0 C3.62125195 3.03002714 7.12881539 6.06782581 10.4375 9.4375 C13.42958389 12.47602421 16.55707828 15.2864045 19.7890625 18.06640625 C22.2812389 20.24595981 24.69838668 22.4977328 27.125 24.75 C32.91072567 30.02498575 39.00517871 34.82883956 45.20166016 39.60888672 C48.14831001 41.88827999 51.07315638 44.19526956 54 46.5 C55.16133952 47.41291158 56.32279808 48.32567175 57.484375 49.23828125 C58.06123047 49.69154785 58.63808594 50.14481445 59.23242188 50.61181641 C61.63952332 52.50225547 64.0481051 54.39080505 66.45654297 56.27954102 C68.20956114 57.65575335 69.96046118 59.0346192 71.7109375 60.4140625 C73.83329834 62.08633862 75.9639586 63.74542894 78.1015625 65.3984375 C79.01679687 66.11257812 79.93203125 66.82671875 80.875 67.5625 C81.67679688 68.18253906 82.47859375 68.80257812 83.3046875 69.44140625 C83.86414063 69.95574219 84.42359375 70.47007812 85 71 C85 71.66 85 72.32 85 73 C81.55705391 71.70146522 78.45387903 70.19920728 75.296875 68.3125 C74.40750244 67.78366211 73.51812988 67.25482422 72.60180664 66.70996094 C71.19016235 65.86353027 71.19016235 65.86353027 69.75 65 C67.76443157 63.81752586 65.77875337 62.63523604 63.79296875 61.453125 C62.81118652 60.86724609 61.8294043 60.28136719 60.81787109 59.67773438 C56.90970848 57.35085052 52.98670599 55.04968149 49.0625 52.75 C41.34386923 48.21831555 33.66615938 43.61978164 26 39 C26.97490305 43.11253713 28.41348185 47.02307847 29.87109375 50.984375 C30.45128295 52.57548033 31.03135742 54.16662751 31.61132812 55.7578125 C32.52260449 58.25090397 33.43512315 60.74352521 34.34985352 63.23535156 C35.23548709 65.6504108 36.11606922 68.06726722 36.99609375 70.484375 C37.26699326 71.21799255 37.53789276 71.95161011 37.81700134 72.7074585 C39.52916606 77.42112176 40.85608699 82.11627881 42 87 C37.84497575 83.28550844 35.00896537 78.78718 31.9375 74.1875 C27.66283381 67.86104274 23.33270663 61.59142427 18.8125 55.4375 C18.35544678 54.81319092 17.89839355 54.18888184 17.42749023 53.5456543 C15.71517831 51.22727193 14.04108194 49.04108194 12 47 C11.39696045 47.56545532 11.39696045 47.56545532 10.78173828 48.14233398 C6.19726434 52.43839808 1.60241933 56.7231687 -3 61 C-3.54237305 61.50499023 -4.08474609 62.00998047 -4.64355469 62.53027344 C-6.00734148 63.79645322 -7.3783638 65.05482764 -8.75 66.3125 C-9.50796875 67.00988281 -10.2659375 67.70726562 -11.046875 68.42578125 C-13 70 -13 70 -16 71 C-15.49279908 60.17126036 -13.12424249 49.60054575 -11 39 C-19.01791944 43.90860816 -26.55127185 49.27020911 -34 55 C-35.21607199 55.93238799 -36.43222008 56.86467672 -37.6484375 57.796875 C-40.77001328 60.19225958 -43.88628687 62.5944055 -47 65 C-47.99 64.505 -47.99 64.505 -49 64 C-48.855625 63.40832031 -48.71125 62.81664062 -48.5625 62.20703125 C-48.2840625 61.02173828 -48.2840625 61.02173828 -48 59.8125 C-47.7215625 58.64654297 -47.7215625 58.64654297 -47.4375 57.45703125 C-46.98577257 54.92009775 -46.92692857 52.57120097 -47 50 C-48.58361328 51.05574219 -48.58361328 51.05574219 -50.19921875 52.1328125 C-62.1328125 60.08854167 -74.06640625 68.04427083 -86 76 C-86.66 75.67 -87.32 75.34 -88 75 C-82.10387521 69.4978559 -76.03555938 64.377423 -69.66748047 59.44018555 C-64.87199422 55.7125694 -60.17578882 51.87639166 -55.5 48 C-49.78694654 43.26954817 -44.02687865 38.6142662 -38.17895508 34.05175781 C-33.1725242 30.1456335 -28.20955245 26.18707712 -23.26660156 22.20092773 C-19.94204125 19.5256273 -16.5744754 16.95111773 -13.125 14.4375 C-7.87922637 10.42073619 -3.99119677 5.21780571 0 0 Z " fill="#F9F9F8" transform="translate(511,156)"/>
<path d="M0 0 C-3.135282 2.090188 -5.22662248 2.66361879 -8.87109375 3.48046875 C-10.07161377 3.75391113 -11.27213379 4.02735352 -12.5090332 4.30908203 C-13.14878082 4.45202698 -13.78852844 4.59497192 -14.44766235 4.74224854 C-17.84598407 5.50266621 -21.2391045 6.28570213 -24.6328125 7.06640625 C-25.32907242 7.22610901 -26.02533234 7.38581177 -26.74269104 7.550354 C-33.78382282 9.16989935 -40.80156542 10.8794283 -47.8125 12.625 C-48.88749756 12.88949951 -49.96249512 13.15399902 -51.07006836 13.42651367 C-57.15622679 14.94840159 -63.17536625 16.62609918 -69.18359375 18.42578125 C-78.13545537 21.10132124 -87.17349255 23.35405013 -96.25 25.5625 C-105.59540622 27.83695494 -114.85386269 30.1774131 -124.02832031 33.08227539 C-128.72671946 34.5332516 -133.4838906 35.73191302 -138.25 36.9375 C-145.87911999 38.89432176 -153.44966413 40.97107801 -160.99023438 43.24365234 C-166.36944986 44.85092035 -171.78652137 46.23338347 -177.24584961 47.5402832 C-182.59170027 48.83857075 -187.76001793 50.51122982 -192.9375 52.36328125 C-200.64736887 53.96622593 -208.59749803 50.91971616 -216 48.875 C-217.14065918 48.5644165 -218.28131836 48.25383301 -219.45654297 47.93383789 C-228.02588353 45.58528709 -236.54869636 43.09141778 -245.06689453 40.56494141 C-253.25938616 38.15969424 -261.5104122 36.0467322 -269.80908203 34.04077148 C-275.08815604 32.75978595 -280.28734223 31.34140971 -285.48095703 29.75 C-289.95448585 28.41808679 -294.47896294 27.28302408 -299 26.125 C-305.76953143 24.37668838 -312.5238972 22.59594724 -319.25 20.6875 C-328.33607432 18.12251614 -337.48102661 15.78541642 -346.625 13.4375 C-347.73349304 13.15270279 -347.73349304 13.15270279 -348.86437988 12.8621521 C-355.37229708 11.19146156 -361.88099091 9.52432712 -368.40136719 7.90283203 C-369.4717775 7.63660789 -369.4717775 7.63660789 -370.56381226 7.36500549 C-372.51794382 6.88004135 -374.47257744 6.39710146 -376.42724609 5.91430664 C-379.97414189 5.00661737 -383.48490685 4.02257769 -387 3 C-387 2.67 -387 2.34 -387 2 C-380.18924671 2.31241988 -373.65367032 3.41123703 -367 4.8125 C-357.48309714 6.81363171 -347.92044942 8.26968587 -338.2890625 9.60473633 C-332.39795425 10.43469669 -326.7456978 11.46414255 -321 13 C-313.74121191 14.58194652 -306.52848104 16.07029858 -299.12261963 16.73718262 C-296.40956601 17.07310604 -293.81874396 17.78735481 -291.17492676 18.46728516 C-287.58709078 19.34607037 -283.96160205 19.99685597 -280.328125 20.65625 C-279.52445496 20.80404907 -278.72078491 20.95184814 -277.89276123 21.10412598 C-276.20216529 21.41453236 -274.51134508 21.72371954 -272.8203125 22.03173828 C-270.27032568 22.49629705 -267.7210503 22.96460455 -265.171875 23.43359375 C-258.3888825 24.6779755 -251.60724923 25.91701168 -244.80078125 27.02734375 C-240.25786525 27.77090278 -235.73536579 28.60459793 -231.21484375 29.47265625 C-230.53964691 29.60195526 -229.86445007 29.73125427 -229.16879272 29.86447144 C-226.39275099 30.3968129 -223.61691586 30.93003727 -220.8425293 31.47094727 C-207.49914961 34.06718459 -196.24569894 35.53424175 -182.75 32.875 C-181.51330566 32.64345215 -180.27661133 32.4119043 -179.00244141 32.17333984 C-171.75925946 30.79746175 -164.56347038 29.25892794 -157.375 27.625 C-145.84211586 25.00889786 -134.20021112 23.14655495 -122.53369141 21.24468994 C-108.77972656 18.99983852 -95.06922087 16.58419177 -81.375 14 C-65.38918218 10.98441384 -49.38592805 8.10043849 -33.35302734 5.34570312 C-31.80300973 5.07841575 -30.25304095 4.81084503 -28.703125 4.54296875 C-27.96482452 4.41566376 -27.22652405 4.28835876 -26.46585083 4.15719604 C-20.32432349 3.0853358 -14.22460745 1.84576044 -8.12792969 0.54418945 C-5.33317984 0.0579658 -2.82647846 -0.11031614 0 0 Z " fill="#CD9C39" transform="translate(712,797)"/>
<path d="M0 0 C4.95 0 9.9 0 15 0 C15.63164062 1.78535156 16.26328125 3.57070313 16.9140625 5.41015625 C22.38855694 20.86877422 27.89546339 36.31545927 33.4375 51.75 C33.88491547 52.99633713 33.88491547 52.99633713 34.34136963 54.26785278 C34.92472798 55.89260087 35.50830007 57.51727223 36.09210205 59.14186096 C36.64518437 60.68151143 37.19757338 62.22141115 37.74920654 63.76158142 C38.90975139 66.99677266 40.08427862 70.22343192 41.29736328 73.43945312 C41.66458496 74.41333984 42.03180664 75.38722656 42.41015625 76.390625 C42.72218994 77.20047852 43.03422363 78.01033203 43.35571289 78.84472656 C44 81 44 81 44 85 C38.06 85 32.12 85 26 85 C24.35 80.38 22.7 75.76 21 71 C12.09 71 3.18 71 -6 71 C-7.65 75.95 -9.3 80.9 -11 86 C-17.27 86 -23.54 86 -30 86 C-28.02671492 78.44208362 -25.73483473 71.12942758 -23.05078125 63.796875 C-22.67447067 62.75718567 -22.2981601 61.71749634 -21.91044617 60.64630127 C-20.7151984 57.34604164 -19.51418949 54.04791888 -18.3125 50.75 C-16.74396891 46.43306072 -15.17806214 42.11517491 -13.61328125 37.796875 C-13.22987579 36.7402063 -12.84647034 35.6835376 -12.45144653 34.59484863 C-9.37856499 26.10360107 -6.39479263 17.58306001 -3.45857239 9.04364014 C-3.14893051 8.14526428 -2.83928864 7.24688843 -2.52026367 6.32128906 C-2.24961594 5.53208069 -1.9789682 4.74287231 -1.70011902 3.92974854 C-1 2 -1 2 0 0 Z " fill="#F9F9FA" transform="translate(251,613)"/>
<path d="M0 0 C5.28 0 10.56 0 16 0 C17.21068889 2.9990669 18.41854933 5.99922814 19.625 9 C19.95628906 9.81984375 20.28757812 10.6396875 20.62890625 11.484375 C23.03065069 17.46607813 25.32275162 23.48545244 27.5761261 29.52424622 C29.56515098 34.85201776 31.58395822 40.16792821 33.61328125 45.48046875 C34.53551179 47.90036765 35.45734937 50.32041598 36.37915039 52.74047852 C37.00907829 54.39200018 37.64029388 56.04303118 38.27270508 57.69360352 C39.20237251 60.1211872 40.12703056 62.55062851 41.05078125 64.98046875 C41.33303055 65.71379929 41.61527985 66.44712982 41.90608215 67.2026825 C43.28319698 70.83882601 44.23191726 74.1595863 45 78 C39.06 78 33.12 78 27 78 C23 68.375 23 68.375 23 65 C13.43 65 3.86 65 -6 65 C-6.33 66.65 -6.66 68.3 -7 70 C-7.99 72.64 -8.98 75.28 -10 78 C-15.94 78 -21.88 78 -28 78 C-27.18415545 73.92077724 -26.18344392 70.47426944 -24.76953125 66.59375 C-24.54237427 65.96816193 -24.31521729 65.34257385 -24.08117676 64.69802856 C-23.32886692 62.63056709 -22.57089754 60.5652354 -21.8125 58.5 C-21.28338354 57.05129281 -20.75433202 55.60256189 -20.2253418 54.15380859 C-15.40357844 40.98078657 -10.44534125 27.85922535 -5.45825195 14.74804688 C-5.16776978 13.98418671 -4.8772876 13.22032654 -4.57800293 12.43331909 C-4.03310909 11.00135884 -3.48757428 9.56964227 -2.94128418 8.13821411 C-1.91293432 5.43791809 -0.91388485 2.74165454 0 0 Z " fill="#F9FAFB" transform="translate(472,620)"/>
<path d="M0 0 C0 5.61 0 11.22 0 17 C-10.89 17 -21.78 17 -33 17 C-33 22.61 -33 28.22 -33 34 C-23.43 34 -13.86 34 -4 34 C-4 39.28 -4 44.56 -4 50 C-13.57 50 -23.14 50 -33 50 C-33 55.94 -33 61.88 -33 68 C-21.78 68 -10.56 68 1 68 C1 73.28 1 78.56 1 84 C-6.24487049 84.02464113 -13.48971682 84.0428318 -20.73461914 84.05493164 C-23.20142033 84.05997356 -25.66821852 84.06680691 -28.13500977 84.07543945 C-31.67204529 84.08751125 -35.20904145 84.09322956 -38.74609375 84.09765625 C-39.85649521 84.10281754 -40.96689667 84.10797882 -42.11094666 84.11329651 C-43.64242088 84.11340981 -43.64242088 84.11340981 -45.20483398 84.11352539 C-46.56051735 84.11685631 -46.56051735 84.11685631 -47.94358826 84.12025452 C-50 84 -50 84 -51 83 C-51.09504251 80.47458998 -51.12557158 77.97662874 -51.11352539 75.45092773 C-51.11367142 74.66074249 -51.11381744 73.87055725 -51.1139679 73.056427 C-51.11326857 70.43212178 -51.10547527 67.80788664 -51.09765625 65.18359375 C-51.09579214 63.36898335 -51.0943682 61.55437244 -51.09336853 59.73976135 C-51.08954279 54.9540977 -51.07971204 50.1684642 -51.06866455 45.3828125 C-51.05845163 40.50325936 -51.05387117 35.62370136 -51.04882812 30.74414062 C-51.03808982 21.16274714 -51.02101273 11.58137607 -51 2 C-38.43112919 0.90855781 -38.43112919 0.90855781 -32.34375 0.68359375 C-30.65572266 0.62075195 -30.65572266 0.62075195 -28.93359375 0.55664062 C-27.23396484 0.49766602 -27.23396484 0.49766602 -25.5 0.4375 C-24.36691406 0.39431641 -23.23382812 0.35113281 -22.06640625 0.30664062 C-14.70603136 0.04106009 -7.36507702 -0.03905723 0 0 Z " fill="#F6F7F8" transform="translate(736,616)"/>
<path d="M0 0 C-0.11512153 1.72985242 -0.24255677 3.45888751 -0.375 5.1875 C-0.44460938 6.15042969 -0.51421875 7.11335937 -0.5859375 8.10546875 C-1.00215853 11.01508938 -1.79874096 13.32890774 -3 16 C-3.88751953 15.80083984 -3.88751953 15.80083984 -4.79296875 15.59765625 C-6.42887994 15.23204478 -8.06564433 14.87023548 -9.703125 14.51171875 C-11.28726197 14.15879027 -12.86538258 13.77810703 -14.4375 13.375 C-20.40119012 12.50226486 -26.55092101 12.09382454 -32 15 C-32.103125 16.216875 -32.20625 17.43375 -32.3125 18.6875 C-32.37050781 19.37199219 -32.42851563 20.05648437 -32.48828125 20.76171875 C-31.70033351 24.37367119 -29.84774837 25.69640737 -27 28 C-23.95808678 29.55791377 -20.81680981 30.78454301 -17.625 32 C-2.22156551 37.92069513 -2.22156551 37.92069513 1.875 45.125 C2.26429688 45.78757812 2.65359375 46.45015625 3.0546875 47.1328125 C6.38206408 53.70506872 5.64528939 60.83580483 3.5 67.6875 C0.74842642 74.56157252 -4.012273 78.8143064 -10.6875 81.875 C-24.15557595 86.44906353 -37.22713247 84.4669861 -50 79 C-50.99 78.34 -51.98 77.68 -53 77 C-51.98408579 71.53135543 -50.92908943 66.23609987 -49 61 C-47.603522 61.45636536 -46.2078492 61.91519488 -44.8125 62.375 C-44.03519531 62.63023437 -43.25789062 62.88546875 -42.45703125 63.1484375 C-40 64 -40 64 -37.66796875 65.08203125 C-34.19923103 66.2755208 -31.16258541 66.30151224 -27.5 66.3125 C-25.56640625 66.33763672 -25.56640625 66.33763672 -23.59375 66.36328125 C-19.81838882 65.98164148 -17.90225807 65.42037371 -15 63 C-14.2435901 58.87936527 -14.2435901 58.87936527 -15 55 C-18.81473491 51.14858494 -23.16135501 49.59475798 -28.125 47.75 C-36.84813294 44.3019511 -46.16167274 40.4426348 -50.6875 31.6875 C-53.18559631 24.49001459 -53.08846465 17.63631609 -49.9375 10.6875 C-46.20476138 4.04449059 -41.02841433 -0.0969593 -34 -3 C-22.73773799 -5.84520303 -10.60770512 -4.36787858 0 0 Z " fill="#F8F9FA" transform="translate(797,618)"/>
<path d="M0 0 C1.19753906 -0.020625 2.39507813 -0.04125 3.62890625 -0.0625 C12.16216368 -0.09988557 19.53383616 0.73212498 27 5.0625 C28.875 7.25 28.875 7.25 29.4375 10.125 C28.21652845 16.90817529 23.79156337 20.49886426 18.52734375 24.44921875 C14.61556293 27.10508172 10.52584435 29.40509402 6.37890625 31.671875 C3.64025059 33.15997103 3.64025059 33.15997103 1.875 36.25 C1.28164079 39.98702198 1.24155724 43.51661173 1.875 47.25 C6.54818908 51.92318908 12.83213007 53.3218455 19.3125 53.5 C28.60168267 53.23279847 36.91286802 50.21213198 43.5625 43.5625 C46.24498761 40.0014276 48.42924969 36.09076987 50.640625 32.2265625 C51.04796875 31.57429688 51.4553125 30.92203125 51.875 30.25 C52.205 30.25 52.535 30.25 52.875 30.25 C53.78740231 39.77953526 50.87623525 45.6598755 45.75 53.5 C37.26363462 61.61739298 27.92448057 63.625 16.51953125 63.625 C12.38712792 63.19980094 8.98645907 62.08082451 5.125 60.625 C-0.9919226 58.33580214 -4.99588284 57.87465942 -11.125 60.25 C-21.51673646 63.53160099 -33.60673367 63.9386422 -43.7265625 59.5625 C-53.1701616 54.39466727 -56.80005898 47.22482305 -60.125 37.25 C-60.25281786 34.57605036 -60.16891871 31.92904143 -60.125 29.25 C-57.34783823 32.64909822 -54.80349789 36.1377994 -52.3125 39.75 C-47.20949709 46.76780806 -41.64850952 51.17109524 -33.125 53.25 C-25.62704817 54.42110867 -17.95657778 52.31569418 -11.125 49.25 C-9.00953402 47.14781101 -8.22628065 45.94570158 -7.796875 42.99609375 C-7.82265625 42.23425781 -7.8484375 41.47242188 -7.875 40.6875 C-7.89046875 39.92308594 -7.9059375 39.15867187 -7.921875 38.37109375 C-8.06293945 36.06226263 -8.06293945 36.06226263 -9.125 33.25 C-10.76223013 32.51399747 -12.4378182 31.86289461 -14.125 31.25 C-30.88970588 22.72058824 -30.88970588 22.72058824 -35.125 14.25 C-35.70016738 8.03819233 -35.70016738 8.03819233 -33.4375 4.9375 C-24.34597925 -1.69685298 -10.70328079 0.04638475 0 0 Z " fill="#09253E" transform="translate(515.125,444.75)"/>
<path d="M0 0 C-0.47770523 1.93786085 -0.95721571 3.87527674 -1.4375 5.8125 C-1.70433594 6.89144531 -1.97117187 7.97039063 -2.24609375 9.08203125 C-2.76077412 11.0740843 -3.34937175 13.04811524 -4 15 C-4.64324219 14.7834375 -5.28648437 14.566875 -5.94921875 14.34375 C-13.75827893 11.93753459 -22.50939496 9.93107636 -30.42578125 12.9140625 C-36.43515405 16.42235924 -40.81836169 21.34076341 -43 28 C-44.04350454 36.99610753 -43.37515765 44.54550505 -38 52 C-33.42718199 57.31401653 -28.00137466 58.75398568 -21.1875 59.3125 C-16.99803159 59.21450074 -13.25572065 58.05881238 -9.296875 56.75390625 C-7.21124363 56.06933677 -5.13528404 55.50443637 -3 55 C-2.1605118 57.10171867 -1.32860344 59.20646625 -0.5 61.3125 C-0.0359375 62.48425781 0.428125 63.65601563 0.90625 64.86328125 C2 68 2 68 2 71 C0.2675 71.680625 0.2675 71.680625 -1.5 72.375 C-2.1496875 72.63023437 -2.799375 72.88546875 -3.46875 73.1484375 C-15.05850805 77.04746104 -28.18530254 78.21596592 -39.64453125 73.2578125 C-49.7793618 67.8458466 -57.19072049 59.89535859 -61 49 C-62.25750749 44.59641856 -62.22179282 40.36443368 -62.25 35.8125 C-62.270625 34.99974609 -62.29125 34.18699219 -62.3125 33.34960938 C-62.38239746 22.36697083 -58.18566031 13.34490759 -50.8125 5.3125 C-37.54172154 -7.35111866 -15.81643841 -8.53939163 0 0 Z " fill="#F9F9FA" transform="translate(605,624)"/>
<path d="M0 0 C2.371875 0.020625 4.74375 0.04125 7.1875 0.0625 C7.1875 6.0025 7.1875 11.9425 7.1875 18.0625 C0.2575 18.0625 -6.6725 18.0625 -13.8125 18.0625 C-13.8125 42.8125 -13.8125 67.5625 -13.8125 93.0625 C-19.7525 93.0625 -25.6925 93.0625 -31.8125 93.0625 C-31.8125 68.6425 -31.8125 44.2225 -31.8125 19.0625 C-34.1225 19.3925 -36.4325 19.7225 -38.8125 20.0625 C-40.20565986 20.13237589 -41.60123026 20.17168405 -42.99609375 20.16015625 C-43.62829834 20.15765869 -44.26050293 20.15516113 -44.91186523 20.15258789 C-45.68344971 20.14348389 -46.45503418 20.13437988 -47.25 20.125 C-49.745625 20.104375 -52.24125 20.08375 -54.8125 20.0625 C-54.8125 14.4525 -54.8125 8.8425 -54.8125 3.0625 C-50.8849609 2.27699218 -47.61116746 1.89383699 -43.65625 1.78125 C-42.46773437 1.74386719 -41.27921875 1.70648437 -40.0546875 1.66796875 C-38.81976562 1.63316406 -37.58484375 1.59835937 -36.3125 1.5625 C-28.10065893 1.32511273 -19.94233752 0.94483457 -11.75439453 0.27197266 C-7.82900107 -0.00752839 -3.93289436 -0.04994011 0 0 Z " fill="#F7F8F9" transform="translate(859.8125,609.9375)"/>
<path d="M0 0 C19.06195976 -0.91644037 19.06195976 -0.91644037 24.52734375 3.515625 C25.01332031 4.00546875 25.49929688 4.4953125 26 5 C26.49628906 5.46921875 26.99257813 5.9384375 27.50390625 6.421875 C33.01337052 12.26096534 33.46059592 19.20770967 33.31640625 26.859375 C32.69020963 33.07495624 30.96011504 38.75986853 26.8125 43.5 C20.32946418 46.9576191 15.10384111 48.1648608 7.68359375 48.078125 C6.4298999 48.0668457 5.17620605 48.05556641 3.88452148 48.04394531 C2.93262939 48.02944336 1.9807373 48.01494141 1 48 C0.34778886 31.99307343 -0.1661172 16.02108104 0 0 Z " fill="#06233B" transform="translate(394,634)"/>
<path d="M0 0 C4.27890016 2.19952103 6.84251775 4.9793203 8.80859375 9.3046875 C9.62054909 15.49584693 9.53679698 21.08520298 5.80859375 26.3046875 C0.23627393 31.75813116 -3.55114916 32.66445103 -11.20703125 32.58203125 C-15.23156507 32.20802353 -17.27149788 31.07860045 -20.19140625 28.3046875 C-24.53785387 22.66605275 -25.90261224 18.41674738 -25.19140625 11.3046875 C-20.50493575 0.49752493 -11.37960883 -3.61064238 0 0 Z " fill="#EDCE88" transform="translate(495.19140625,736.6953125)"/>
<path d="M0 0 C4.33269532 3.37950235 7.49383004 6.29191312 8.60546875 11.83203125 C8.91407619 17.26185408 7.92909984 21.32304379 4.7265625 25.7421875 C0.38698742 30.33578648 -4.28404727 31.66724119 -10.5 31.9375 C-15.37209788 31.72859954 -18.24989159 30.88577385 -21.875 27.4375 C-25.76772105 22.41793864 -26.52292115 18.41603297 -26.25390625 12.08984375 C-25.45918526 6.52679683 -23.25834988 3.53853358 -18.8125 0 C-13.05650624 -2.85942916 -5.74768679 -2.89894246 0 0 Z " fill="#E4BB68" transform="translate(783.875,737.5625)"/>
<path d="M0 0 C4.12938164 2.40310239 6.5034559 4.68517316 8.62109375 9.046875 C9.44575105 14.56687838 9.36934431 19.4949479 6.93359375 24.546875 C0.27436686 31.7460392 0.27436686 31.7460392 -4.48046875 32.28515625 C-10.63042859 32.46603742 -15.40952148 31.88269043 -20.37890625 28.046875 C-24.63462824 22.94000861 -25.0120693 18.42513642 -24.7578125 11.85546875 C-24.01566748 6.35441442 -21.56944313 3.9701485 -17.31640625 0.671875 C-11.91630509 -2.07452838 -5.60512911 -2.24573318 0 0 Z " fill="#E8C06E" transform="translate(743.37890625,736.953125)"/>
<path d="M0 0 C17.68481375 0 17.68481375 0 23 5 C27.54772936 9.84113125 27.40215165 15.57325666 27.34765625 21.94921875 C26.83257575 26.46919479 25.16973944 29.75199539 22 33 C17 36 17 36 0 36 C0 24.12 0 12.24 0 0 Z " fill="#0B2740" transform="translate(183,619)"/>
<path d="M0 0 C18.66666667 0 18.66666667 0 23.875 4.6875 C25.54223946 8.11460334 25.58256917 11.2592927 25 15 C23.625 17.5 23.625 17.5 22 19 C21.34 19 20.68 19 20 19 C20.433125 19.84304688 20.86625 20.68609375 21.3125 21.5546875 C21.869375 22.65039062 22.42625 23.74609375 23 24.875 C23.556875 25.96554687 24.11375 27.05609375 24.6875 28.1796875 C26 31 26 31 26 33 C23.36 33 20.72 33 18 33 C17.69707031 32.28972656 17.39414062 31.57945312 17.08203125 30.84765625 C16.66308594 29.92855469 16.24414062 29.00945313 15.8125 28.0625 C15.40644531 27.14597656 15.00039063 26.22945312 14.58203125 25.28515625 C12.9704933 22.39211675 12.9704933 22.39211675 8 22 C8 25.63 8 29.26 8 33 C5.36 33 2.72 33 0 33 C0 22.11 0 11.22 0 0 Z " fill="#E6CC91" transform="translate(325,736)"/>
<path d="M0 0 C7 0 7 0 9.2578125 2.16015625 C9.87398437 3.11792969 10.49015625 4.07570313 11.125 5.0625 C12.05699219 6.47208984 12.05699219 6.47208984 13.0078125 7.91015625 C13.66523437 8.92980469 14.32265625 9.94945312 15 11 C16.65 13.31 18.3 15.62 20 18 C20.33 12.06 20.66 6.12 21 0 C23.64 0 26.28 0 29 0 C29 10.89 29 21.78 29 33 C22 33 22 33 19.5234375 30.5859375 C18.81445312 29.52632812 18.10546875 28.46671875 17.375 27.375 C14.38427507 23.00227943 11.42373468 19.10848161 8 15 C7.67 20.94 7.34 26.88 7 33 C4.69 33 2.38 33 0 33 C0 22.11 0 11.22 0 0 Z " fill="#E5C685" transform="translate(511,736)"/>
<path d="M0 0 C6 0 6 0 8.88671875 2.703125 C9.83857169 3.87076658 10.77178503 5.0538073 11.6875 6.25 C12.15994141 6.83652344 12.63238281 7.42304687 13.11914062 8.02734375 C14.43445174 9.6691767 15.71757043 11.33247076 17 13 C17.60457031 13.73734375 18.20914062 14.4746875 18.83203125 15.234375 C20 17 20 17 20 20 C20.66 20 21.32 20 22 20 C22 13.4 22 6.8 22 0 C24.31 0 26.62 0 29 0 C29 10.89 29 21.78 29 33 C23 33 23 33 21.1640625 31.6015625 C20.65617187 30.94929687 20.14828125 30.29703125 19.625 29.625 C19.04878906 28.90570312 18.47257812 28.18640625 17.87890625 27.4453125 C17.25886719 26.63835938 16.63882812 25.83140625 16 25 C14.52179914 23.16588786 13.04263673 21.33255024 11.5625 19.5 C10.386875 18.015 9.21125 16.53 8 15 C7.67 20.94 7.34 26.88 7 33 C4.69 33 2.38 33 0 33 C0 22.11 0 11.22 0 0 Z " fill="#ECD193" transform="translate(358,736)"/>
<path d="M0 0 C6 0 6 0 7.75097656 1.3293457 C8.20956055 1.93866943 8.66814453 2.54799316 9.140625 3.17578125 C9.65367187 3.83900391 10.16671875 4.50222656 10.6953125 5.18554688 C11.20835937 5.88744141 11.72140625 6.58933594 12.25 7.3125 C12.77851563 8.00279297 13.30703125 8.69308594 13.8515625 9.40429688 C15.99423821 12.21859809 18.0373525 15.05602875 20 18 C20.33 12.06 20.66 6.12 21 0 C23.31 0 25.62 0 28 0 C28 10.56 28 21.12 28 32 C21 32 21 32 18.234375 29.296875 C17.38316798 28.13109148 16.55542212 26.94787303 15.75 25.75 C15.32976562 25.16347656 14.90953125 24.57695313 14.4765625 23.97265625 C13.30067061 22.32714716 12.14954267 20.6640233 11 19 C10.01 17.68 9.02 16.36 8 15 C7.67 20.94 7.34 26.88 7 33 C4.69 33 2.38 33 0 33 C0 22.11 0 11.22 0 0 Z " fill="#EFD293" transform="translate(228,736)"/>
<path d="M0 0 C2.64 0 5.28 0 8 0 C8 10.89 8 21.78 8 33 C5.36 33 2.72 33 0 33 C0 28.71 0 24.42 0 20 C-4.29 20 -8.58 20 -13 20 C-13 23.96 -13 27.92 -13 32 C-15.31 32 -17.62 32 -20 32 C-20 21.77 -20 11.54 -20 1 C-17.69 1 -15.38 1 -13 1 C-13 4.96 -13 8.92 -13 13 C-8.71 13 -4.42 13 0 13 C0 8.71 0 4.42 0 0 Z " fill="#E0BD76" transform="translate(704,736)"/>
<path d="M0 0 C1.134375 0.020625 2.26875 0.04125 3.4375 0.0625 C5.06753656 4.24805669 6.6906255 8.43627453 8.3125 12.625 C8.77269531 13.80642578 9.23289062 14.98785156 9.70703125 16.20507812 C11.86056998 21.7761892 13.95803911 27.27219618 15.4375 33.0625 C13.1275 33.0625 10.8175 33.0625 8.4375 33.0625 C7.4475 31.0825 6.4575 29.1025 5.4375 27.0625 C1.4775 27.0625 -2.4825 27.0625 -6.5625 27.0625 C-7.2225 29.0425 -7.8825 31.0225 -8.5625 33.0625 C-11.2025 33.0625 -13.8425 33.0625 -16.5625 33.0625 C-14.26828414 25.95783155 -11.6673517 19.01041288 -8.9375 12.0625 C-8.53015625 11.01449219 -8.1228125 9.96648438 -7.703125 8.88671875 C-7.31382812 7.89285156 -6.92453125 6.89898438 -6.5234375 5.875 C-6.17071777 4.97394531 -5.81799805 4.07289063 -5.45458984 3.14453125 C-3.99033957 -0.27285417 -4.06031289 0.07123356 0 0 Z " fill="#E9CE8D" transform="translate(408.5625,735.9375)"/>
<path d="M0 0 C1.134375 0.020625 2.26875 0.04125 3.4375 0.0625 C5.1507732 4.43909283 6.85965493 8.81736459 8.56445312 13.19726562 C9.1452731 14.68764709 9.72729968 16.17755891 10.31054688 17.66699219 C11.14769528 19.80542231 11.98051894 21.94549257 12.8125 24.0859375 C13.07498535 24.75370209 13.3374707 25.42146667 13.60791016 26.10946655 C15.4375 30.83475659 15.4375 30.83475659 15.4375 33.0625 C13.1275 33.0625 10.8175 33.0625 8.4375 33.0625 C7.4475 31.0825 6.4575 29.1025 5.4375 27.0625 C1.4775 27.0625 -2.4825 27.0625 -6.5625 27.0625 C-7.5525 29.0425 -8.5425 31.0225 -9.5625 33.0625 C-11.8725 33.0625 -14.1825 33.0625 -16.5625 33.0625 C-14.26828414 25.95783155 -11.6673517 19.01041288 -8.9375 12.0625 C-8.53015625 11.01449219 -8.1228125 9.96648438 -7.703125 8.88671875 C-7.31382812 7.89285156 -6.92453125 6.89898438 -6.5234375 5.875 C-6.17071777 4.97394531 -5.81799805 4.07289063 -5.45458984 3.14453125 C-3.99033957 -0.27285417 -4.06031289 0.07123356 0 0 Z " fill="#E8C984" transform="translate(561.5625,735.9375)"/>
<path d="M0 0 C7.26 0 14.52 0 22 0 C22 2.31 22 4.62 22 7 C17.38 7 12.76 7 8 7 C8 8.98 8 10.96 8 13 C11.96 13 15.92 13 20 13 C20 15.31 20 17.62 20 20 C16.04 20 12.08 20 8 20 C8 22.31 8 24.62 8 27 C12.62 27 17.24 27 22 27 C22 28.98 22 30.96 22 33 C14.74 33 7.48 33 0 33 C0 22.11 0 11.22 0 0 Z " fill="#E3C88B" transform="translate(295,736)"/>
<path d="M0 0 C17.27678571 -0.80357143 17.27678571 -0.80357143 21.5625 2.375 C23.98275575 5.09940554 24.48291634 7.46075078 24.6875 11.0625 C24.35505806 15.48397782 23.44378675 18.02158983 20 21 C15.77195137 23.1906194 11.84041086 23.23986159 7.1875 23.125 C4.815625 23.08375 2.44375 23.0425 0 23 C0 15.41 0 7.82 0 0 Z " fill="#0D2941" transform="translate(632,635)"/>
<path d="M0 0 C0.7528125 -0.01417969 1.505625 -0.02835938 2.28125 -0.04296875 C4.74864173 0.21332722 6.36356256 0.95904847 8.5 2.1875 C8.17 3.8375 7.84 5.4875 7.5 7.1875 C3.87 7.1875 0.24 7.1875 -3.5 7.1875 C-3.83 8.5075 -4.16 9.8275 -4.5 11.1875 C-3.66855469 11.50203125 -2.83710937 11.8165625 -1.98046875 12.140625 C-0.89378906 12.56859375 0.19289063 12.9965625 1.3125 13.4375 C2.93091797 14.06398438 2.93091797 14.06398438 4.58203125 14.703125 C7.59407369 16.23535542 8.84547386 17.2850207 10.5 20.1875 C11.02866286 23.22731143 11.10695589 25.18520886 9.48046875 27.87109375 C7.3146781 30.59959738 5.83601196 32.07549601 2.5 33.1875 C0.71120198 33.3065686 -1.0822856 33.36272113 -2.875 33.375 C-3.81085937 33.38917969 -4.74671875 33.40335938 -5.7109375 33.41796875 C-8.66118154 33.17418108 -10.82364112 32.41862508 -13.5 31.1875 C-12.84 29.2075 -12.18 27.2275 -11.5 25.1875 C-10.860625 25.3525 -10.22125 25.5175 -9.5625 25.6875 C-5.52413348 26.34682515 -1.58192742 26.26753779 2.5 26.1875 C2.16334085 23.70501876 2.16334085 23.70501876 0.5 21.1875 C-1.53083631 20.30432612 -1.53083631 20.30432612 -3.875 19.6875 C-7.09923564 18.75293894 -8.47019436 18.21367081 -11.0625 15.9375 C-12.9339765 12.35728409 -13.07020182 10.17891271 -12.5 6.1875 C-9.70064205 1.5885548 -9.70064205 1.5885548 -6.640625 0.56640625 C-4.39153793 0.16830142 -2.2836634 0.01955191 0 0 Z " fill="#E9C579" transform="translate(632.5,735.8125)"/>
<path d="M0 0 C0.70382812 0.32097656 1.40765625 0.64195312 2.1328125 0.97265625 C1.8028125 2.95265625 1.4728125 4.93265625 1.1328125 6.97265625 C0.4728125 6.80765625 -0.1871875 6.64265625 -0.8671875 6.47265625 C-8.14896618 5.24761227 -8.14896618 5.24761227 -14.8046875 7.84765625 C-17.22010808 10.33627139 -17.78935279 11.2877108 -18.1796875 14.72265625 C-17.78939723 18.7816751 -16.37131372 20.80567309 -13.8671875 23.97265625 C-9.3261498 26.2431751 -3.676794 24.91111605 1.1328125 23.97265625 C1.4628125 25.95265625 1.7928125 27.93265625 2.1328125 29.97265625 C-3.50341874 32.55808342 -8.7602521 32.61985864 -14.8671875 31.97265625 C-20.31622639 29.59489382 -23.66867008 25.43620592 -25.8671875 19.97265625 C-26.74965352 15.00015209 -26.46363477 11.23712445 -24.3046875 6.66015625 C-17.4333464 -0.91593778 -10.20191566 -3.65545479 0 0 Z " fill="#E6C071" transform="translate(673.8671875,737.02734375)"/>
<path d="M0 0 C8.91 0 17.82 0 27 0 C27 1.98 27 3.96 27 6 C26.67 6.33 26.34 6.66 26 7 C23.36 7 20.72 7 18 7 C18 15.58 18 24.16 18 33 C15.36 33 12.72 33 10 33 C10 24.42 10 15.84 10 7 C6.7 7 3.4 7 0 7 C0 4.69 0 2.38 0 0 Z " fill="#DAC082" transform="translate(262,736)"/>
<path d="M0 0 C2.64 0 5.28 0 8 0 C8 8.58 8 17.16 8 26 C12.29 26 16.58 26 21 26 C21 28.31 21 30.62 21 33 C14.07 33 7.14 33 0 33 C0 22.11 0 11.22 0 0 Z " fill="#CBAB69" transform="translate(798,736)"/>
<path d="M0 0 C2.64 0 5.28 0 8 0 C8 8.58 8 17.16 8 26 C12.29 26 16.58 26 21 26 C21 28.31 21 30.62 21 33 C14.07 33 7.14 33 0 33 C0 22.11 0 11.22 0 0 Z " fill="#DBBE7F" transform="translate(582,736)"/>
<path d="M0 0 C8.58 0 17.16 0 26 0 C26 2.31 26 4.62 26 7 C22.7 7 19.4 7 16 7 C16 15.58 16 24.16 16 33 C14.02 33 12.04 33 10 33 C10 24.09 10 15.18 10 6 C6.7 6 3.4 6 0 6 C0 4.02 0 2.04 0 0 Z " fill="#EDCF8A" transform="translate(424,736)"/>
<path d="M0 0 C4.10007872 0.38679988 6.11398775 1.78344381 9.3125 4.3125 C10.90939041 7.50628082 10.68598957 10.83771315 10.3125 14.3125 C9.04765069 17.2216534 8.05799933 18.77265566 5.5 20.625 C2.50527955 21.56619786 0.43900508 21.75914358 -2.6875 21.3125 C-6.79926563 17.84034236 -8.53547533 15.85808414 -9.0625 10.5 C-9.04261166 6.85380475 -8.75358692 6.39214321 -6.25 3.375 C-5.404375 2.694375 -4.55875 2.01375 -3.6875 1.3125 C-2.6875 0.3125 -2.6875 0.3125 0 0 Z " fill="#0C283C" transform="translate(734.6875,741.6875)"/>
<path d="M0 0 C3.49406769 1.66762322 4.82670681 2.74006022 7 6 C7.48692434 10.30116499 7.28241006 12.48387126 5.1875 16.3125 C2.66520094 19.41132456 1.1322491 20.85231533 -2.875 21.375 C-6.73854796 20.91137424 -8.27565009 19.72434991 -11 17 C-12.23671367 13.28985899 -12.56368603 9.85561242 -12 6 C-8.61619562 0.69870647 -6.21952213 -0.48780566 0 0 Z " fill="#0C273B" transform="translate(490,742)"/>
<path d="M0 0 C2.85677777 2.00582269 4.66515215 3.42143155 5.41015625 6.93359375 C5.60301252 11.36928802 4.88740831 14.49386134 2 18 C-1.20528701 20.32106991 -4.12159743 20.55405751 -8 20 C-12.25628919 16.50038444 -13.76636522 14.102713 -14.375 8.625 C-14 5 -14 5 -11.625 2.125 C-7.34439753 -1.34024962 -5.40195142 -1.28181898 0 0 Z " fill="#0C273A" transform="translate(779,743)"/>
<path d="M0 0 C3.96 0 7.92 0 12 0 C12 1.98 12 3.96 12 6 C11.34 6 10.68 6 10 6 C10 12.93 10 19.86 10 27 C10.66 27 11.32 27 12 27 C12 28.98 12 30.96 12 33 C8.04 33 4.08 33 0 33 C0 31.35 0 29.7 0 28 C0.66 28 1.32 28 2 28 C2 20.74 2 13.48 2 6 C1.34 6 0.68 6 0 6 C0 4.02 0 2.04 0 0 Z " fill="#F2D38D" transform="translate(208,736)"/>
<path d="M0 0 C5.97014822 5.97014822 7.06900607 18.98637521 9 27 C3.39 27 -2.22 27 -8 27 C-5.83955554 17.78968412 -3.08626964 8.92944418 0 0 Z " fill="#0C283F" transform="translate(258,640)"/>
<path d="M0 0 C2.2534872 2.2534872 2.73648451 3.71974454 3.7265625 6.71875 C4.0359375 7.65074219 4.3453125 8.58273437 4.6640625 9.54296875 C4.98117187 10.51878906 5.29828125 11.49460937 5.625 12.5 C5.94984375 13.47582031 6.2746875 14.45164062 6.609375 15.45703125 C9 22.71930804 9 22.71930804 9 25 C3.39 25 -2.22 25 -8 25 C-6.87613072 19.17631373 -5.3072912 13.62007724 -3.4375 8 C-3.21553955 7.3289624 -2.9935791 6.6579248 -2.76489258 5.96655273 C-1.12932926 1.12932926 -1.12932926 1.12932926 0 0 Z " fill="#122C43" transform="translate(480,645)"/>
<path d="M0 0 C2.4375 1.625 2.4375 1.625 4 4 C4.72125695 8.40768137 4.52001338 10.25937488 1.9375 13.9375 C-1 16 -1 16 -4.5 16.6875 C-8 16 -8 16 -11 13.4375 C-13 10 -13 10 -13.125 6.375 C-10.80869361 -0.57391916 -6.85196698 -1.99329948 0 0 Z " fill="#F5F6F7" transform="translate(571,393)"/>
<path d="M0 0 C2.31 0 4.62 0 7 0 C7 10.56 7 21.12 7 32 C4.69 32 2.38 32 0 32 C0 21.44 0 10.88 0 0 Z " fill="#F3D392" transform="translate(456,737)"/>
<path d="M0 0 C2.9375 1.5625 2.9375 1.5625 5 4 C5.6694949 8.09135771 5.38501272 10.24601675 3.5 13.9375 C0.64087822 16.29627547 -1.32106115 16.73700044 -5.0234375 16.48046875 C-8.57637321 15.61681046 -10.02953982 13.98747189 -12 11 C-12.06944397 7.04169355 -11.5699479 4.85492184 -9.375 1.5625 C-6.02385272 -0.64220216 -3.93750984 -0.55263296 0 0 Z " fill="#F6F7F8" transform="translate(459,392)"/>
<path d="M0 0 C1.0415625 0.3815625 2.083125 0.763125 3.15625 1.15625 C3.88714844 1.40503906 4.61804688 1.65382812 5.37109375 1.91015625 C6.96614583 2.65885417 8.56119792 3.40755208 10.15625 4.15625 C7.32825522 6.04157986 4.50538975 7.35672706 1.40405273 8.72070312 C-7.15724047 12.52200286 -13.94894857 16.72308754 -20.84375 23.15625 C-21.50375 22.49625 -22.16375 21.83625 -22.84375 21.15625 C-22.18375 21.15625 -21.52375 21.15625 -20.84375 21.15625 C-21.17375 20.16625 -21.50375 19.17625 -21.84375 18.15625 C-19.02276474 15.10290099 -16.15724056 12.09527093 -13.28125 9.09375 C-12.48138672 8.22685547 -11.68152344 7.35996094 -10.85742188 6.46679688 C-4.78340762 0.19444746 -4.78340762 0.19444746 0 0 Z " fill="#0F2D47" transform="translate(372.84375,250.84375)"/>
<path d="M0 0 C-3.20834451 2.13889634 -5.44797199 2.71299142 -9.1875 3.55078125 C-10.4353125 3.83493896 -11.683125 4.11909668 -12.96875 4.41186523 C-14.31249132 4.71211565 -15.65624149 5.0123265 -17 5.3125 C-19.73011013 5.93079588 -22.45904197 6.55414425 -25.1875 7.1796875 C-26.19816528 7.41095589 -26.19816528 7.41095589 -27.22924805 7.64689636 C-33.61266161 9.11897718 -39.94000563 10.77680571 -46.23828125 12.57739258 C-50.26510592 13.69358515 -53.82155847 14.21545089 -58 14 C-58 13.34 -58 12.68 -58 12 C-58.66 11.34 -59.32 10.68 -60 10 C-58.30025024 9.7054895 -58.30025024 9.7054895 -56.56616211 9.4050293 C-52.28848011 8.66331631 -48.01124619 7.91904545 -43.73413086 7.17407227 C-41.89668361 6.85438371 -40.05912176 6.53535305 -38.22143555 6.21704102 C-35.5522525 5.75457683 -32.88342907 5.29011932 -30.21484375 4.82421875 C-29.34185638 4.6718576 -28.46886902 4.51949646 -27.56942749 4.36251831 C-21.02923851 3.20917073 -14.52720597 1.91672795 -8.03344727 0.52661133 C-5.27607361 0.04792682 -2.78947758 -0.10572364 0 0 Z " fill="#94762A" transform="translate(712,797)"/>
<path d="M0 0 C8.05321239 0.36941341 15.79101165 1.86068152 23.65332031 3.54003906 C29.0970612 4.68710538 34.46109074 5.46505504 40 6 C40 6.33 40 6.66 40 7 C38.35 7 36.7 7 35 7 C35 7.66 35 8.32 35 9 C35.99 9.33 36.98 9.66 38 10 C32.60350744 9.3592555 27.58631429 8.14417163 22.375 6.625 C14.95979987 4.50976172 7.53711877 2.6379251 0 1 C0 0.67 0 0.34 0 0 Z " fill="#A88231" transform="translate(325,799)"/>
<path d="M0 0 C0.33 0 0.66 0 1 0 C1 7.92 1 15.84 1 24 C2.98 24 4.96 24 7 24 C7 16.08 7 8.16 7 0 C7.33 0 7.66 0 8 0 C8 6.93 8 13.86 8 21 C8.66 21 9.32 21 10 21 C10 22.98 10 24.96 10 27 C6.04 27 2.08 27 -2 27 C-2 25.35 -2 23.7 -2 22 C-1.34 22 -0.68 22 0 22 C0 14.74 0 7.48 0 0 Z " fill="#BFA871" transform="translate(210,742)"/>
<path d="M0 0 C0 0.33 0 0.66 0 1 C-6.27 1.33 -12.54 1.66 -19 2 C-18.67 2.99 -18.34 3.98 -18 5 C-25.59 5 -33.18 5 -41 5 C-41 4.67 -41 4.34 -41 4 C-27.16822822 1.04377082 -14.14613006 -0.58806083 0 0 Z " fill="#3E546A" transform="translate(539,272)"/>
<path d="M0 0 C6.0546875 -0.1953125 6.0546875 -0.1953125 8 0 C8.66 0.66 9.32 1.32 10 2 C9.44444444 6.55555556 9.44444444 6.55555556 8 8 C5.32941149 8.14115161 2.67567762 8.04247107 0 8 C0 5.36 0 2.72 0 0 Z " fill="#092236" transform="translate(333,743)"/>
<path d="M0 0 C5.28 0.33 10.56 0.66 16 1 C15.01 1.66 14.02 2.32 13 3 C13.33 3.99 13.66 4.98 14 6 C10.31733897 5.40049704 6.65456815 4.75241109 3 4 C3 3.34 3 2.68 3 2 C2.01 2 1.02 2 0 2 C0 1.34 0 0.68 0 0 Z " fill="#C19536" transform="translate(360,806)"/>
<path d="M0 0 C0.33 0.66 0.66 1.32 1 2 C1.99 2.33 2.98 2.66 4 3 C3.34 3 2.68 3 2 3 C1.7525 3.825 1.505 4.65 1.25 5.5 C-0.18704811 9.52373471 -2.02354515 13.21979024 -4 17 C-4.99 16.67 -5.98 16.34 -7 16 C-5.35433477 10.31497465 -2.70967216 5.23318364 0 0 Z " fill="#D5DADF" transform="translate(350,378)"/>
<path d="M0 0 C1.8984375 0.546875 1.8984375 0.546875 4.5234375 1.546875 C4.5234375 1.876875 4.5234375 2.206875 4.5234375 2.546875 C-3.51869005 2.71364723 -11.46260004 2.1935348 -19.4765625 1.546875 C-14.0823232 -2.04928454 -6.25557581 -1.1445533 0 0 Z " fill="#364E64" transform="translate(251.4765625,552.453125)"/>
<path d="M0 0 C5 5 5 5 5 8 C4.34 8 3.68 8 3 8 C3 8.66 3 9.32 3 10 C2.34 10 1.68 10 1 10 C1 12.97 1 15.94 1 19 C0.67 19 0.34 19 0 19 C0 12.73 0 6.46 0 0 Z " fill="#15374C" transform="translate(365,750)"/>
<path d="M0 0 C0.66 0.33 1.32 0.66 2 1 C-2.41824881 7.18554833 -7.66058447 10.9362721 -14 15 C-14.66 14.67 -15.32 14.34 -16 14 C-10.74557475 9.23363401 -5.49783089 4.48507257 0 0 Z " fill="#F4F1E8" transform="translate(439,217)"/>
<path d="M0 0 C0.66 0 1.32 0 2 0 C2.99 3.3 3.98 6.6 5 10 C2.36 10 -0.28 10 -3 10 C-2.01 6.7 -1.02 3.4 0 0 Z " fill="#25343F" transform="translate(560,746)"/>
<path d="M0 0 C0.66 0 1.32 0 2 0 C2.99 2.97 3.98 5.94 5 9 C2.69 9 0.38 9 -2 9 C-1.51421457 5.87709365 -1.0013988 3.00419641 0 0 Z " fill="#233849" transform="translate(407,747)"/>
<path d="M0 0 C-0.33 0.99 -0.66 1.98 -1 3 C-0.34 3.33 0.32 3.66 1 4 C-2.3 4.33 -5.6 4.66 -9 5 C-9 4.34 -9 3.68 -9 3 C-9.66 2.34 -10.32 1.68 -11 1 C-7.26562152 0.12132271 -3.83225427 -0.08912219 0 0 Z " fill="#B68B30" transform="translate(663,806)"/>
<path d="M0 0 C3.62613199 0.56959153 5.25517741 1.92374534 7.75 4.5625 C8.36359375 5.20316406 8.9771875 5.84382813 9.609375 6.50390625 C10.06828125 6.99761719 10.5271875 7.49132812 11 8 C10.67 8.66 10.34 9.32 10 10 C6.37 7.36 2.74 4.72 -1 2 C-0.67 1.34 -0.34 0.68 0 0 Z " fill="#D1AD50" transform="translate(794,342)"/>
<path d="M0 0 C2.38651055 0.9123481 4.67602422 1.93097114 7 3 C3.12813552 4.44715727 0.1767672 3.5441918 -3.75 2.5625 C-4.92046875 2.27503906 -6.0909375 1.98757813 -7.296875 1.69140625 C-8.18890625 1.46324219 -9.0809375 1.23507812 -10 1 C-6.16853419 -1.12494571 -4.30231646 -1.0966689 0 0 Z " fill="#C6CDD5" transform="translate(445,263)"/>
<path d="M0 0 C-2.73099824 1.82066549 -4.39135166 2.55088116 -7.5 3.3125 C-8.2734375 3.51488281 -9.046875 3.71726562 -9.84375 3.92578125 C-12 4 -12 4 -13.78125 2.54296875 C-14.1834375 2.03378906 -14.585625 1.52460937 -15 1 C-10.03926578 -0.32286246 -5.08888488 -0.08893197 0 0 Z " fill="#B78D2E" transform="translate(685,803)"/>
<path d="M0 0 C3.45925163 1.2491742 6.14693203 2.67527795 9 5 C8.67 6.32 8.34 7.64 8 9 C5.06799526 6.14723863 2.35684596 3.34920216 0 0 Z " fill="#213449" transform="translate(669,272)"/>
<path d="M0 0 C0.66 0 1.32 0 2 0 C1.01621713 2.19459255 0.22103594 3.79664694 -1.5625 5.4375 C-3.45263121 7.49199044 -3.6324247 9.27994277 -4 12 C-4.33 12 -4.66 12 -5 12 C-5.34934248 9.06552319 -5.51495218 6.85632498 -3.95703125 4.265625 C-2.625 2.625 -2.625 2.625 0 0 Z " fill="#2D3F44" transform="translate(660,743)"/>
<path d="M0 0 C0.66 0.66 1.32 1.32 2 2 C0.74057614 3.19959375 -0.53295286 4.38439443 -1.8125 5.5625 C-2.87404297 6.55443359 -2.87404297 6.55443359 -3.95703125 7.56640625 C-4.63121094 8.03949219 -5.30539062 8.51257813 -6 9 C-6.99 8.67 -7.98 8.34 -9 8 C-6.03 5.36 -3.06 2.72 0 0 Z " fill="#203851" transform="translate(523,202)"/>
<path d="M0 0 C0.33 0 0.66 0 1 0 C1 5.28 1 10.56 1 16 C0.01 15.01 -0.98 14.02 -2 13 C-1.67 12.67 -1.34 12.34 -1 12 C-0.76572222 9.98405418 -0.58663876 7.961526 -0.4375 5.9375 C-0.35371094 4.83277344 -0.26992187 3.72804688 -0.18359375 2.58984375 C-0.12300781 1.73519531 -0.06242188 0.88054688 0 0 Z " fill="#122E47" transform="translate(248,739)"/>
<path d="M0 0 C-1.29299694 2.88437779 -2.65941363 4.87219421 -5 7 C-5.99 6.67 -6.98 6.34 -8 6 C-7.0479279 4.99403703 -6.08812654 3.99538437 -5.125 3 C-4.59132813 2.443125 -4.05765625 1.88625 -3.5078125 1.3125 C-2 0 -2 0 0 0 Z " fill="#253D55" transform="translate(371,251)"/>
<path d="M0 0 C0.66 0.66 1.32 1.32 2 2 C1.625 4.625 1.625 4.625 1 7 C0.01 7.33 -0.98 7.66 -2 8 C-1.34 5.36 -0.68 2.72 0 0 Z " fill="#253D51" transform="translate(258,640)"/>
<path d="M0 0 C0.99 0.66 1.98 1.32 3 2 C1.71475739 2.86380259 0.42157581 3.71580369 -0.875 4.5625 C-1.59429687 5.03816406 -2.31359375 5.51382812 -3.0546875 6.00390625 C-3.69664062 6.33261719 -4.33859375 6.66132813 -5 7 C-5.66 6.67 -6.32 6.34 -7 6 C-4.69 4.02 -2.38 2.04 0 0 Z " fill="#C8AB48" transform="translate(217,340)"/>
<path d="M0 0 C0.33 0.66 0.66 1.32 1 2 C-0.32 3.65 -1.64 5.3 -3 7 C-3.99 6.67 -4.98 6.34 -6 6 C-4.02 4.02 -2.04 2.04 0 0 Z " fill="#1E3B54" transform="translate(331,288)"/>
<path d="M0 0 C0.99 0.33 1.98 0.66 3 1 C0.69 2.65 -1.62 4.3 -4 6 C-4.66 5.67 -5.32 5.34 -6 5 C-1.60546875 0.99609375 -1.60546875 0.99609375 0 0 Z " fill="#E4E6DC" transform="translate(429,226)"/>
<path d="M0 0 C0.99 0.33 1.98 0.66 3 1 C2.01 2.32 1.02 3.64 0 5 C-1.32 4.34 -2.64 3.68 -4 3 C-2.1875 1.4375 -2.1875 1.4375 0 0 Z " fill="#D6A432" transform="translate(599,226)"/>
</svg>
